<?xml version="1.0" encoding="UTF-8" standalone="no"?>
<!DOCTYPE svg PUBLIC "-//W3C//DTD SVG 1.1//EN" "http://www.w3.org/Graphics/SVG/1.1/DTD/svg11.dtd">
<svg width="100%" height="100%" viewBox="0 0 500 500" version="1.1" xmlns="http://www.w3.org/2000/svg" xmlns:xlink="http://www.w3.org/1999/xlink" xml:space="preserve" xmlns:serif="http://www.serif.com/" style="fill-rule:evenodd;clip-rule:evenodd;stroke-linejoin:round;stroke-miterlimit:2;">
    <g id="OBJECTS">
        <g transform="matrix(0,-1,-1,0,257.667,66.1097)">
            <path d="M-186.557,-186.557C-289.59,-186.557 -373.114,-103.033 -373.114,0C-373.114,103.033 -289.59,186.557 -186.557,186.557C-83.524,186.557 0,103.033 0,0C0,-103.033 -83.524,-186.557 -186.557,-186.557" style="fill:rgb(111,72,142);fill-rule:nonzero;"/>
        </g>
        <g transform="matrix(0,-1,-1,0,257.667,99.1097)">
            <path d="M-153.557,-153.557C-238.364,-153.557 -307.114,-84.807 -307.114,0C-307.114,84.807 -238.364,153.557 -153.557,153.557C-68.75,153.557 0,84.807 0,0C0,-84.807 -68.75,-153.557 -153.557,-153.557" style="fill:rgb(133,87,157);fill-rule:nonzero;"/>
        </g>
        <g transform="matrix(0,-1,-1,0,257.667,124)">
            <path d="M-128.666,-128.666C-199.728,-128.666 -257.333,-71.06 -257.333,0.001C-257.333,71.061 -199.728,128.666 -128.666,128.666C-57.605,128.666 0.001,71.061 0.001,0.001C0.001,-71.06 -57.605,-128.666 -128.666,-128.666" style="fill:rgb(255,245,157);fill-rule:nonzero;"/>
        </g>
        <g transform="matrix(1,0,0,1,292.158,209.433)">
            <path d="M0,123.066C-31.192,132.218 -66.621,133.072 -94.518,116.385C-114.948,104.165 -129.583,83.279 -136.001,60.355C-146.05,24.461 -136.762,-13.061 -124.36,-48.834C-148.293,-25.468 -163.158,7.144 -163.158,43.233C-163.158,114.294 -105.552,171.9 -34.491,171.9C29.391,171.9 82.391,125.341 92.448,64.307C67.782,91.858 35.505,112.648 0,123.066" style="fill:rgb(253,215,118);fill-rule:nonzero;"/>
        </g>
        <g transform="matrix(1,0,0,1,165.472,286.879)">
            <path d="M0,-46.31C-3.981,-36.436 -4.704,-25.279 -2.03,-14.974C-0.59,-9.422 9.673,5.497 16.953,2.351C26.937,-1.964 20.725,-28.616 18.439,-35.973C16.773,-41.331 14.077,-46.605 9.571,-49.95C8.209,-50.962 6.559,-51.807 4.882,-51.548C2.409,-51.166 0.936,-48.63 0,-46.31" style="fill:rgb(253,215,118);fill-rule:nonzero;"/>
        </g>
        <g transform="matrix(1,0,0,1,190.469,293.548)">
            <path d="M0,14.61C1.917,16.21 4.452,17.37 6.882,16.796C10.582,15.92 12.33,11.249 11.274,7.596C10.218,3.943 7.197,1.217 4.107,-0.999C2.875,-1.883 1.415,-2.76 -0.065,-2.428C-0.8,-2.263 -1.441,-1.81 -1.988,-1.291C-6.366,2.864 -4.634,10.742 0,14.61" style="fill:rgb(253,215,118);fill-rule:nonzero;"/>
        </g>
        <g transform="matrix(1,0,0,1,370.388,294.28)">
            <path d="M0,-21.091C-0.529,-21.487 -1.185,-21.671 -1.828,-21.821C-8.681,-23.417 -16.189,-21.945 -21.931,-17.878C-27.673,-13.812 -31.555,-7.218 -32.323,-0.224C-29.795,1.966 -26.077,2.326 -22.83,1.526C-19.583,0.726 -16.687,-1.077 -13.853,-2.852C-9.179,-5.782 -4.414,-8.791 -0.95,-13.083C0.394,-14.748 1.57,-16.805 1.224,-18.916C1.085,-19.757 0.683,-20.58 0,-21.091" style="fill:rgb(253,215,118);fill-rule:nonzero;"/>
        </g>
        <g transform="matrix(1,0,0,1,171.941,180.862)">
            <path d="M0,20.791C5.997,18.523 9.884,11.69 8.77,5.376C8.362,3.062 7.127,0.641 4.898,-0.105C2.674,-0.85 0.225,0.338 -1.456,1.975C-5.018,5.444 -6.226,10.633 -6.892,15.56C-7.075,16.917 -7.208,18.391 -6.51,19.569C-5.285,21.636 -2.248,21.641 0,20.791" style="fill:rgb(253,215,118);fill-rule:nonzero;"/>
        </g>
        <g transform="matrix(1,0,0,1,257.667,233.319)">
            <path d="M0,-109.319C-15.087,-109.319 -29.564,-106.714 -43.016,-101.943C-20.27,-102.083 2.637,-98.714 24.74,-93.181C34.747,-90.677 44.779,-87.68 53.578,-82.296C61.832,-77.245 68.705,-70.277 76.192,-64.146C82.841,-58.702 90.008,-53.892 96.412,-48.161C110.767,-35.314 120.771,-18.207 127.219,0C117.886,-61.881 64.484,-109.319 0,-109.319" style="fill:rgb(253,250,218);fill-rule:nonzero;"/>
        </g>
        <g transform="matrix(1,0,0,1,358.538,198.135)">
            <path d="M0,33.591C4.106,33.727 7.339,29.946 8.718,26.076C11.924,17.078 7.874,6.069 -0.399,1.294C-1.762,0.508 -3.295,-0.136 -4.861,0.011C-6.939,0.207 -8.684,1.799 -9.602,3.673C-10.521,5.546 -10.749,7.676 -10.879,9.759C-11.278,16.12 -10.813,22.825 -7.513,28.277C-5.856,31.014 -3.198,33.485 0,33.591" style="fill:rgb(253,250,218);fill-rule:nonzero;"/>
        </g>
        <g transform="matrix(1,0,0,1,348.492,188.117)">
            <path d="M0,4.027C-0.007,1.851 -0.101,-0.417 -1.134,-2.332C-2.166,-4.248 -4.416,-5.681 -6.508,-5.082C-7.829,-2.981 -9.054,-0.731 -9.348,1.733C-9.643,4.198 -8.823,6.934 -6.765,8.321C-4.707,9.708 -1.397,9.14 -0.4,6.867C-0.013,5.985 0.003,4.99 0,4.027" style="fill:rgb(253,250,218);fill-rule:nonzero;"/>
        </g>
        <g transform="matrix(1,0,0,1,200.771,158.551)">
            <path d="M0,-3.191C1.255,-4.985 2.537,-7.377 1.338,-9.209C0.444,-10.575 -1.432,-10.876 -3.061,-10.763C-10.817,-10.225 -17.214,-2.261 -16.067,5.429C-14.261,7.635 -10.739,7.685 -8.236,6.321C-5.733,4.957 -4.01,2.54 -2.375,0.204C-1.583,-0.928 -0.792,-2.059 0,-3.191" style="fill:rgb(253,250,218);fill-rule:nonzero;"/>
        </g>
        <g transform="matrix(1,0,0,1,100.058,339.666)">
            <path d="M0,101.688C7.403,106.215 17.457,103.713 24.111,98.143C34.674,89.299 38.266,73.102 32.431,60.622C30.697,56.915 28.264,53.588 26.097,50.116C20.992,41.942 17.35,32.95 13.983,23.92C10.553,14.72 7.468,4.068 12.213,-4.527C3.678,3.014 0.07,15.679 3.352,26.586C5.361,33.264 9.603,38.995 13.243,44.942C19.394,54.992 24.068,66.64 22.574,78.328C21.081,90.015 11.775,101.275 0,101.688" style="fill:rgb(196,158,198);fill-rule:nonzero;"/>
        </g>
        <g transform="matrix(1,0,0,1,126.154,390.33)">
            <path d="M0,-0.548C-5.105,-8.722 -8.747,-17.714 -12.113,-26.745C-15.538,-35.93 -18.617,-46.562 -13.903,-55.151C-13.949,-55.118 -13.99,-55.081 -14.035,-55.047C-14.814,-54.348 -15.543,-53.598 -16.237,-52.818C-18.08,-50.348 -19.087,-47.166 -19.684,-44.084C-21.334,-35.562 -20.867,-26.637 -18.335,-18.334C-17.213,-14.654 -15.698,-11.127 -14.056,-7.648C-13.651,-7.008 -13.248,-6.366 -12.854,-5.722C-8.765,0.958 -5.341,8.346 -3.936,15.981C-2.305,22.346 -1.953,28.959 -4.189,35.054C-5.037,37.368 -6.236,39.538 -7.526,41.639C-10.338,46.217 -13.996,50.791 -19.183,52.189C-20.141,52.447 -21.142,52.593 -22.148,52.718C-15.394,54.603 -7.517,52.109 -1.985,47.478C8.578,38.635 12.169,22.437 6.334,9.957C4.601,6.25 2.168,2.923 0,-0.548" style="fill:rgb(174,141,177);fill-rule:nonzero;"/>
        </g>
        <g transform="matrix(1,0,0,1,193.337,321.734)">
            <path d="M0,62.157C7.165,59.769 10.651,51.269 10.187,43.731C9.723,36.193 6.325,29.204 3.825,22.078C1.325,14.952 -0.26,6.892 2.828,0C-0.78,1.954 -4.458,4.208 -6.53,7.75C-10.14,13.923 -7.742,21.839 -4.348,28.134C-0.954,34.429 3.48,40.586 3.887,47.726C4.174,52.763 2.377,57.706 0,62.157" style="fill:rgb(196,158,198);fill-rule:nonzero;"/>
        </g>
        <g transform="matrix(1,0,0,1,197.162,361.841)">
            <path d="M0,-18.029C-2.477,-25.089 -4.049,-33.063 -1.076,-39.912C-5.775,-34.623 -7.704,-26.947 -5.933,-20.083C-5.172,-17.137 -3.801,-14.392 -2.519,-11.632C1.384,-3.236 4.544,6.59 0.852,15.081C-0.218,17.542 -1.804,19.718 -3.407,21.883C3.469,19.305 6.816,11.01 6.362,3.624C5.898,-3.914 2.5,-10.903 0,-18.029" style="fill:rgb(174,141,177);fill-rule:nonzero;"/>
        </g>
        <g transform="matrix(1,0,0,1,318.564,287.682)">
            <path d="M0,-11.622C2.981,-12.873 5.577,-15.04 8.714,-15.819C12.756,-16.823 17.141,-15.283 20.27,-12.536C23.4,-9.789 25.416,-5.975 26.806,-2.05C27.508,-0.064 28.081,1.999 29.221,3.77C30.493,5.747 32.409,7.246 34.492,8.334C40.082,11.255 48.481,11.169 52.886,6.15C50.02,6.037 47.554,5.503 45.693,3.146C43.781,0.723 43.033,-2.391 41.725,-5.187C37.467,-14.282 27.527,-19.408 17.728,-21.604C14.089,-22.42 10.075,-22.877 6.798,-21.094C3.314,-19.199 1.54,-15.276 0,-11.622" style="fill:rgb(196,158,198);fill-rule:nonzero;"/>
        </g>
        <g transform="matrix(1,0,0,1,363.19,272.049)">
            <path d="M0,22.521C-5.289,21.322 -10.319,18 -12.463,13.019C-13.823,9.858 -14.057,6.08 -16.42,3.579C-17.314,2.633 -18.448,1.952 -19.593,1.332C-26.525,-2.422 -35.36,-4.254 -42.136,-0.224L-42.793,0.058C-43.48,1.339 -44.07,2.691 -44.626,4.01C-41.645,2.76 -39.048,0.592 -35.911,-0.187C-31.87,-1.191 -27.485,0.349 -24.355,3.096C-21.225,5.843 -19.209,9.657 -17.82,13.583C-17.117,15.568 -16.544,17.631 -15.405,19.403C-14.133,21.379 -12.216,22.878 -10.133,23.967C-5.102,26.595 2.194,26.775 6.816,23.129C4.525,23.188 2.24,23.029 0,22.521" style="fill:rgb(174,141,177);fill-rule:nonzero;"/>
        </g>
        <g transform="matrix(1,0,0,1,463.024,263.023)">
            <path d="M0,-48.518C-5.812,-46.818 -9.865,-40.483 -8.973,-34.493C-8.548,-31.646 -7.175,-29.041 -6.244,-26.316C-4.613,-21.544 -4.366,-16.221 -6.062,-11.471C-7.759,-6.722 -11.506,-2.635 -16.279,-1.007C-18.597,-0.216 -21.074,-0.007 -23.524,0.006C-27.333,0.028 -31.334,-0.48 -34.432,-2.698C-39.045,-6.001 -40.492,-12.16 -41.044,-17.807C-41.596,-23.454 -41.688,-29.449 -44.704,-34.255C-40.266,-32.521 -39.755,-26.592 -37.518,-22.385C-34.202,-16.15 -26.292,-13.491 -19.285,-14.374C-18.059,-14.529 -16.709,-14.86 -16.043,-15.901C-15.599,-16.597 -15.56,-17.467 -15.534,-18.292C-15.331,-24.759 -15.128,-31.226 -14.926,-37.692C-14.87,-39.481 -14.802,-41.321 -14.076,-42.956C-11.901,-47.852 -5.357,-48.546 0,-48.518" style="fill:rgb(196,158,198);fill-rule:nonzero;"/>
        </g>
        <g transform="matrix(1,0,0,1,456.78,241.944)">
            <path d="M0,-5.238C-0.931,-7.963 -2.305,-10.567 -2.729,-13.415C-3.485,-18.49 -0.684,-23.803 3.724,-26.344C0.478,-25.121 -2.557,-23.311 -4.246,-20.352C-7.126,-15.304 -5.109,-9.038 -4.623,-3.247C-4.352,-0.005 -4.595,3.279 -5.341,6.445C-5.675,7.864 -6.126,9.292 -7.008,10.453C-9.67,13.955 -14.909,13.731 -19.271,13.166C-21.934,12.822 -24.751,12.412 -26.822,10.704C-29.453,8.533 -30.183,4.892 -31.345,1.686C-32.409,-1.25 -33.972,-4 -35.924,-6.437C-35.282,-3.277 -35.115,0.054 -34.8,3.272C-34.248,8.919 -32.801,15.078 -28.188,18.38C-25.09,20.598 -21.089,21.106 -17.28,21.085C-14.831,21.071 -12.353,20.862 -10.035,20.072C-5.262,18.444 -1.515,14.357 0.181,9.607C1.878,4.857 1.631,-0.466 0,-5.238" style="fill:rgb(174,141,177);fill-rule:nonzero;"/>
        </g>
        <g transform="matrix(1,0,0,1,82.6497,308.648)">
            <path d="M0,2.67C0,2.67 -0.167,15.683 6.173,18.352C6.173,18.352 7.674,13.014 11.845,14.682C11.845,14.682 15.349,4.505 24.191,8.342C24.191,8.342 21.522,0.668 29.53,-0.5C29.53,-0.5 29.196,-5.505 33.367,-6.172C33.367,-6.172 27.861,-15.682 18.185,-15.014C18.185,-15.014 21.995,-10.527 19.186,-6.839C16.517,-3.336 13.347,-6.506 13.347,-6.506C13.347,-6.506 12.012,-3.67 8.675,-3.169C8.675,-3.169 11.678,0.835 7.841,3.004C4.699,4.78 0,2.67 0,2.67" style="fill:rgb(47,22,77);fill-rule:nonzero;"/>
        </g>
        <g transform="matrix(1,0,0,1,365.45,122.436)">
            <path d="M0,-29.211C0,-29.211 -12.599,-25.029 -13.056,-18.027C-13.056,-18.027 -7.409,-18.362 -7.625,-13.785C-7.625,-13.785 3.354,-13.804 2.606,-4C2.606,-4 9.113,-9.135 12.911,-1.806C12.911,-1.806 17.624,-3.798 19.659,0C19.659,0 26.988,-8.481 23.115,-17.585C23.115,-17.585 20.061,-12.414 15.569,-13.892C11.302,-15.295 13.299,-19.409 13.299,-19.409C13.299,-19.409 10.12,-19.749 8.524,-22.798C8.524,-22.798 5.667,-18.567 2.295,-21.542C-0.465,-23.977 0,-29.211 0,-29.211" style="fill:rgb(47,22,77);fill-rule:nonzero;"/>
        </g>
        <g transform="matrix(1,0,0,1,286.836,156.096)">
            <path d="M0,-31.98C0,-31.98 -6.663,-39.176 -12.259,-43.173C-17.856,-47.171 -20.521,-45.572 -25.051,-47.437C-29.582,-49.303 -30.648,-50.102 -35.178,-50.102C-39.709,-50.102 -38.643,-46.638 -51.701,-47.437C-64.76,-48.237 -87.679,-54.633 -104.203,-49.569C-120.726,-44.506 -126.322,-37.044 -126.589,-27.183C-126.855,-17.322 -124.457,-1.599 -124.457,2.132C-124.457,5.863 -128.188,7.196 -131.652,7.462C-135.117,7.729 -139.381,4.264 -138.048,-1.066C-138.048,-1.066 -142.845,4.264 -139.381,11.726C-135.916,19.188 -127.122,22.653 -121.259,19.721C-115.396,16.79 -109.266,2.399 -106.068,-5.33C-102.87,-13.058 -101.004,-12.525 -98.073,-13.058C-95.141,-13.591 -94.608,-9.86 -91.943,-10.66C-89.278,-11.459 -89.278,-14.657 -84.748,-14.124C-81.355,-13.725 -76.469,-3.464 -74.228,2.896C-63.644,-11.78 -4.736,-33.558 0,-31.98" style="fill:rgb(47,22,77);fill-rule:nonzero;"/>
        </g>
        <g transform="matrix(1,0,0,1,293.816,164.972)">
            <path d="M0,-32.642C-1.697,-35.934 -4.252,-39.947 -6.981,-40.856C-11.716,-42.435 -70.625,-20.656 -81.209,-5.98C-81.346,-5.789 -81.481,-5.599 -81.601,-5.412C-83.275,-2.808 -82.093,4.855 -80.32,9.793C-76.88,7.662 -73.307,5.813 -69.648,4.344C-47.053,-4.733 -29.943,-22.051 0,-32.642" style="fill:rgb(199,27,114);fill-rule:nonzero;"/>
        </g>
        <g transform="matrix(1,0,0,1,219.098,243.456)">
            <path d="M0,-57.672C-0.698,-57.373 -1.409,-57.059 -2.093,-56.774C-24.017,-47.658 -40.514,-16.183 -40.514,-16.183C-38.293,0 -20.645,-7.115 0.541,-20.172C-0.192,-24.959 -1.21,-29.881 -2.181,-35.122C-4.156,-45.784 -2.248,-53.116 0,-57.672" style="fill:rgb(199,27,114);fill-rule:nonzero;"/>
        </g>
        <g transform="matrix(1,0,0,1,303.205,153.193)">
            <path d="M0,-10.237C7.238,-7.369 17.078,-0.893 24.669,13.711C45.72,4.302 62.69,-7.032 54.676,-15.135C38.973,-23.948 18.531,-18.439 0,-10.237" style="fill:rgb(199,27,114);fill-rule:nonzero;"/>
        </g>
        <g transform="matrix(1,0,0,1,259.75,206.908)">
            <path d="M0,46.092C0,39.242 2.549,33.898 4.324,30.999C2.902,30.657 1.461,30.275 0,29.842C-13.75,8.092 -3.5,-17.658 -3.5,-17.658C-6,-7.908 1,-0.658 1,-0.658C2,-9.158 8.5,-20.158 15.75,-25.158C23,-30.158 26.5,-40.158 26.5,-40.158C28.25,-34.158 23.5,-26.158 23.5,-26.158C40,-32.908 43,-45.908 43,-45.908C51.5,-41.158 52.5,-42.408 52.5,-42.408C52.5,-42.408 64.75,-22.408 67,-3.908C68.581,9.094 56.085,26.788 33.591,31.731C36.155,33.976 38.026,36.88 39.528,39.993C41.266,43.596 43.631,46.435 46.454,49.285C47.271,50.11 48.133,50.955 49.028,51.8C51.624,42.956 53.059,35.602 55.25,32.425C61.917,22.759 85.25,5.092 72.25,-30.575C70.984,-34.048 69.595,-37.174 68.124,-40.004C60.533,-54.608 50.693,-61.084 43.455,-63.952C38.728,-61.86 34.123,-59.595 29.755,-57.345C8.936,-46.62 -18.994,-30.416 -40.652,-21.124C-42.901,-16.568 -44.808,-9.237 -42.833,1.425C-41.863,6.667 -40.844,11.589 -40.112,16.376C-38.013,30.083 -38.272,42.676 -48.833,58.425C-62.202,78.362 -50.872,110.044 -6.874,103.552C1.691,83.756 0,55.212 0,46.092" style="fill:rgb(242,110,44);fill-rule:nonzero;"/>
        </g>
        <g transform="matrix(0.806343,-0.591448,-0.591448,-0.806343,333.19,276.213)">
            <path d="M-2.388,-0.689C-1.789,-0.803 -0.826,-0.985 0.438,-1.221C0.661,2 -1.202,5.581 -2.388,7.501C-3.479,6.832 -5.027,5.983 -6.758,5.333C-5.04,3.483 -2.579,0.633 -2.388,-0.689" style="fill:rgb(248,164,122);fill-rule:nonzero;"/>
        </g>
        <g transform="matrix(1,0,0,1,299.278,267.647)">
            <path d="M0,-20.746C-1.502,-23.859 -3.373,-26.763 -5.937,-29.008C-7.159,-28.74 -8.414,-28.514 -9.694,-28.323C-5.331,-22.002 -1.131,-10.55 1.24,-3.421C2.816,-2.406 4.407,-1.632 6.028,-1.222C18.623,1.967 24.579,7.549 24.579,7.549C24.516,7.735 24.445,7.908 24.38,8.09C24.66,8.14 24.974,8.198 25.308,8.262C26.32,6.714 27.065,5.114 27.55,3.93C27.995,2.841 28.222,2.103 28.222,2.103C21.252,0.994 14.744,-3.984 9.5,-8.939C8.605,-9.784 7.742,-10.629 6.926,-11.454C4.103,-14.304 1.738,-17.143 0,-20.746" style="fill:rgb(28,0,53);fill-rule:nonzero;"/>
        </g>
        <g transform="matrix(1,0,0,1,171.25,404.703)">
            <path d="M0,-38.203C-5,-44.203 -5.75,-52.453 -1.25,-56.953C-0.406,-57.797 0.579,-58.421 1.621,-58.878C-2.512,-63.671 -19.313,-80.035 -48.056,-68.617C-48.056,-68.617 -46.131,-66.059 -43.154,-65.221C-43.154,-65.221 -54.194,-64.047 -68.329,-51.208C-82.464,-38.37 -103.162,-31.978 -118.442,-31.178C-118.442,-31.178 -111.434,2.543 -84.953,3.575C-84.953,3.575 -91.759,5.375 -96.5,4.985C-96.5,4.985 -76.828,41.832 -38.704,29.701C-38.704,29.701 -40.534,32.399 -42.328,33.846C-42.328,33.846 -19.463,38.773 0.921,9.112C0.921,9.112 1.56,12.882 0.494,15.102C0.494,15.102 23.74,1.344 11.953,-36.32C7.796,-34.615 2.574,-35.114 0,-38.203" style="fill:rgb(242,110,44);fill-rule:nonzero;"/>
        </g>
        <g transform="matrix(1,0,0,1,184.25,354.41)">
            <path d="M0,5.59C-5,3.84 -5.533,-2.831 -4.25,-5.91C-3.772,-7.058 -3.034,-8.299 -2.141,-9.551C-3.897,-9.785 -7.949,-10.088 -11.379,-8.585C-12.421,-8.128 -13.406,-7.504 -14.25,-6.66C-18.75,-2.16 -18,6.09 -13,12.09C-10.426,15.179 -5.204,15.678 -1.047,13.973C2.245,12.623 4.859,9.888 4.964,5.953C2.889,6.072 1.122,5.983 0,5.59" style="fill:rgb(47,22,77);fill-rule:nonzero;"/>
        </g>
        <g transform="matrix(1,0,0,1,438,285.694)">
            <path d="M0,-53.694C-0.75,-55.194 -2,-56.944 -7.25,-56.194C-12.5,-55.444 -32,-46.194 -55.25,-33.444C-73.775,-23.285 -95.616,-12.658 -103.736,-8.755C-104.893,-8.199 -105.779,-7.775 -106.328,-7.514C-106.305,-7.49 -106.27,-7.467 -106.25,-7.444C-105,-5.944 -107,-3.194 -107,-3.194C-107,-3.194 -105.408,0.923 -107.901,3.25C-78.273,-10.42 -54.438,-20.74 -52.75,-21.944C-46.946,-26.086 -32.266,-30.132 -25.75,-24.944C-19.725,-20.147 -8.25,-33.944 -4.5,-38.694C-0.75,-43.444 0.75,-52.194 0,-53.694" style="fill:rgb(220,135,88);fill-rule:nonzero;"/>
        </g>
        <g transform="matrix(1,0,0,1,241.038,318.288)">
            <path d="M0,4.831C0.481,4.918 1.044,5.016 1.687,5.124C3.373,2.796 7.212,0.462 7.212,0.462C7.389,0.217 7.553,-0.043 7.725,-0.293C5.02,1.025 2.372,2.317 -0.209,3.577C0.031,3.862 0.128,4.264 0,4.831" style="fill:rgb(177,110,70);fill-rule:nonzero;"/>
        </g>
        <g transform="matrix(1,0,0,1,211.18,346.443)">
            <path d="M0,-10.053C-2.936,-8.61 -5.475,-7.361 -7.555,-6.336C-8.8,-3.863 -10.93,-1.193 -10.93,-1.193C-10.93,-1.193 -7.238,-1.035 -5.286,0C-3.828,-0.677 -1.988,-1.53 0.189,-2.54C0.009,-3.685 -0.116,-4.876 -0.18,-6.11C-0.253,-7.51 -0.175,-8.819 0,-10.053" style="fill:rgb(177,110,70);fill-rule:nonzero;"/>
        </g>
        <g transform="matrix(1,0,0,1,275.177,344.732)">
            <path d="M0,0.954C1.097,0.942 2.118,0.882 3.062,0.782C2.853,0.521 2.648,0.261 2.446,0C1.72,0.328 0.912,0.652 0,0.954" style="fill:rgb(248,164,122);fill-rule:nonzero;"/>
        </g>
        <g transform="matrix(1,0,0,1,241.034,329.808)">
            <path d="M0,-6.663C-0.778,-3.375 -1.729,-1.274 -2.705,0.026C0.722,-0.009 5.091,-0.163 9.574,-0.609C10.05,-1.602 10.466,-2.308 10.466,-2.308C10.466,-2.308 1.716,-1.308 0.966,-4.058C0.771,-4.77 1.102,-5.583 1.691,-6.396C1.048,-6.504 0.485,-6.603 0.004,-6.689C0.002,-6.68 0.002,-6.673 0,-6.663" style="fill:rgb(248,164,122);fill-rule:nonzero;"/>
        </g>
        <g transform="matrix(1,0,0,1,229.167,317.016)">
            <path d="M0,11.484C1.328,11.318 4.321,10.476 4.166,12.791C5.365,12.818 7.088,12.84 9.162,12.819C10.138,11.518 11.09,9.417 11.868,6.129C11.87,6.12 11.87,6.112 11.872,6.103C12,5.536 11.903,5.133 11.663,4.849C10.945,3.999 8.96,4.197 7.958,4.166C6.615,4.124 4.678,-0.735 0.346,-1.077C-3.18,-1.356 -8.358,1.792 -10.707,8.16C-9.895,7.777 -9.088,7.542 -8.333,7.484C-4,7.151 -1.333,11.651 0,11.484" style="fill:rgb(47,22,77);fill-rule:nonzero;"/>
        </g>
        <g transform="matrix(1,0,0,1,225.167,349.864)">
            <path d="M0,-13.531C-2.243,-11.288 -2.84,-5.559 -2.018,-1.598C-1.309,-1.131 -0.546,-0.751 0.279,-0.485C1.531,-0.081 2.874,0 4.173,-0.161C4.33,-0.83 4.333,-1.364 4.333,-1.364C4.813,-1.066 5.202,-0.748 5.525,-0.418C9.926,-1.566 13.159,-5.446 9.187,-8.872C9.187,-8.872 8.515,-4.591 4.97,-5.654C3.595,-6.066 2.962,-8.117 2.932,-10.64C2.334,-10.714 1.823,-10.955 1.5,-11.198C0.167,-12.198 0,-13.531 0,-13.531" style="fill:rgb(47,22,77);fill-rule:nonzero;"/>
        </g>
        <g transform="matrix(1,0,0,1,274.75,337.61)">
            <path d="M0,3.14C0,3.14 -9,8.39 -11.75,7.39C-14.5,6.39 -14,-2.36 -14,-2.36C-14,-2.36 -24,-0.61 -25.25,-2.61C-26.054,-3.896 -24.998,-6.624 -24.141,-8.411C-28.625,-7.965 -32.993,-7.81 -36.421,-7.775C-38.495,-7.754 -40.218,-7.776 -41.417,-7.803C-41.418,-7.794 -41.416,-7.786 -41.417,-7.777C-41.898,-1.52 -43.602,0.786 -45.213,1.428C-21.295,11.551 -7.138,10.58 0.427,8.076C1.339,7.774 2.147,7.451 2.874,7.122C1.29,5.072 0,3.14 0,3.14" style="fill:rgb(253,210,164);fill-rule:nonzero;"/>
        </g>
        <g transform="matrix(1,0,0,1,328.75,348.451)">
            <path d="M0,-28.951C-1.212,-25.519 -8.75,-7.201 -42,-8.201C-75.25,-9.201 -80.5,-29.701 -80.5,-29.701C-80.5,-29.701 -84.339,-27.367 -86.024,-25.039C-86.613,-24.226 -86.944,-23.413 -86.75,-22.701C-86,-19.951 -77.25,-20.951 -77.25,-20.951C-77.25,-20.951 -77.666,-20.245 -78.141,-19.252C-78.998,-17.465 -80.054,-14.737 -79.25,-13.451C-78,-11.451 -68,-13.201 -68,-13.201C-68,-13.201 -68.5,-4.451 -65.75,-3.451C-63,-2.451 -54,-7.701 -54,-7.701C-54,-7.701 -52.71,-5.769 -51.126,-3.719C-50.925,-3.458 -50.72,-3.197 -50.51,-2.936C-48.966,-1.009 -47.273,0.822 -46.25,1.049C-44,1.549 -38.25,-6.201 -38.25,-6.201C-38.25,-6.201 -30.75,2.799 -28.5,3.049C-26.25,3.299 -22,-6.951 -22,-6.951C-22,-6.951 -15.25,-0.701 -13.25,-1.451C-11.25,-2.201 -9.25,-12.451 -9.25,-12.451C-9.25,-12.451 -1.5,-12.201 -0.5,-12.701C0.5,-13.201 -0.75,-20.701 -0.75,-20.701C-0.75,-20.701 3.75,-21.701 4.5,-23.701C5.058,-25.19 3.398,-29.584 0.349,-32.25C0.456,-31.081 0.361,-29.974 0,-28.951" style="fill:rgb(199,27,114);fill-rule:nonzero;"/>
        </g>
        <g transform="matrix(0.846637,0.532172,0.532172,-0.846637,309.084,339.651)">
            <path d="M-0.992,-2.808C-0.992,-2.808 8.049,-4.507 9.343,-2.808" style="fill:rgb(199,27,114);fill-rule:nonzero;"/>
        </g>
        <g transform="matrix(1,0,0,1,316.5,284.657)">
            <path d="M0,9.843C-1.769,9.027 -3.979,6.805 -5.628,4.948C-10.205,6.993 -14.077,7.149 -14.077,7.149C-14.077,7.149 -16.982,0.732 -23.147,-5.612C-29.312,-11.956 -42.851,-16.198 -49.474,-23.318C-56.098,-30.438 -56.289,-44.048 -45.906,-42.903C-34.384,-41.632 -25.453,-26.529 -15.982,-20.431C-18.353,-27.56 -22.553,-39.012 -26.916,-45.333C-34.462,-44.21 -43.009,-44.492 -52.426,-46.75C-54.201,-43.851 -56.75,-38.507 -56.75,-31.657C-56.75,-22.537 -55.059,6.007 -63.624,25.803C-64.792,28.503 -66.156,31.034 -67.737,33.337C-67.909,33.588 -68.073,33.848 -68.25,34.093C-68.25,34.093 -63,54.593 -29.75,55.593C3.5,56.593 11.038,38.275 12.25,34.843C12.611,33.82 12.706,32.713 12.599,31.544C12.019,25.186 5.321,16.974 1.111,10.196C0.743,10.125 0.372,10.015 0,9.843" style="fill:rgb(47,22,77);fill-rule:nonzero;"/>
        </g>
        <g transform="matrix(1,0,0,1,233.333,353.422)">
            <path d="M0,-23.589C0.001,-23.599 -0.001,-23.606 0,-23.616C0.154,-25.93 -2.839,-25.088 -4.167,-24.922C-5.5,-24.756 -8.167,-29.256 -12.5,-28.922C-13.255,-28.864 -14.061,-28.629 -14.874,-28.246C-18.052,-26.748 -21.328,-22.835 -22.153,-17.032C-22.329,-15.798 -22.406,-14.489 -22.333,-13.089C-22.27,-11.855 -22.144,-10.664 -21.964,-9.519C-20.733,-1.695 -16.858,3.872 -11.333,4.744C-5.493,5.667 1.189,-0.071 -2.641,-3.976C-2.964,-4.306 -3.353,-4.624 -3.833,-4.922C-3.833,-4.922 -3.837,-4.388 -3.994,-3.719C-4.286,-2.478 -5.117,-0.764 -7.5,-1.089C-8.817,-1.269 -9.723,-2.935 -10.184,-5.156C-11.007,-9.117 -10.409,-14.846 -8.167,-17.089C-8.167,-17.089 -8,-15.756 -6.667,-14.756C-6.343,-14.513 -5.833,-14.272 -5.235,-14.198C-4.791,-14.144 -4.298,-14.184 -3.797,-14.384C-2.186,-15.026 -0.481,-17.332 0,-23.589" style="fill:rgb(47,22,77);fill-rule:nonzero;"/>
        </g>
        <g transform="matrix(1,0,0,1,217.005,159.547)">
            <path d="M0,27.134C0.684,26.849 1.395,26.536 2.093,26.236C23.752,16.944 51.681,0.74 72.5,-9.984C76.868,-12.235 81.473,-14.499 86.2,-16.591C104.731,-24.793 125.173,-30.302 140.876,-21.489C140.876,-21.489 126.116,-40.591 88.563,-30.823C84.421,-29.746 80.524,-28.53 76.811,-27.217C46.868,-16.626 29.759,0.692 7.163,9.769C3.505,11.238 -0.068,13.087 -3.508,15.218C-23.948,27.877 -39.536,50.818 -38.421,67.725C-38.421,67.725 -21.924,36.251 0,27.134" style="fill:rgb(47,22,77);fill-rule:nonzero;"/>
        </g>
        <g transform="matrix(1,0,0,1,326.75,198.447)">
            <path d="M0,4.553C-2.25,-13.947 -14.5,-33.947 -14.5,-33.947C-14.5,-33.947 -15.5,-32.697 -24,-37.447C-24,-37.447 -27,-24.447 -43.5,-17.697C-43.5,-17.697 -38.75,-25.697 -40.5,-31.697C-40.5,-31.697 -44,-21.697 -51.25,-16.697C-58.5,-11.697 -65,-0.697 -66,7.803C-66,7.803 -73,0.553 -70.5,-9.197C-70.5,-9.197 -80.75,16.553 -67,38.303C-65.539,38.736 -64.098,39.118 -62.676,39.46C-53.259,41.718 -44.712,42 -37.166,40.877C-35.886,40.687 -34.631,40.46 -33.409,40.192C-10.915,35.249 1.581,17.555 0,4.553" style="fill:rgb(253,210,164);fill-rule:nonzero;"/>
        </g>
        <g transform="matrix(1,0,0,1,331,288.638)">
            <path d="M0,-6.138C0,-6.138 2,-8.888 0.75,-10.388C0.73,-10.411 0.695,-10.434 0.672,-10.458C-0.264,-11.41 -3.934,-12.253 -6.413,-12.728C-6.747,-12.793 -7.062,-12.851 -7.342,-12.901C-10.138,-5.128 -15.491,-1.106 -20.128,0.967C-18.479,2.824 -16.269,5.046 -14.5,5.862C-14.128,6.034 -13.757,6.144 -13.389,6.215C-10.549,6.763 -8,4.612 -8,4.612C-3.5,4.612 -1.25,0.612 -1.25,0.612C-1.122,0.516 -1.013,0.41 -0.901,0.306C1.592,-2.021 0,-6.138 0,-6.138" style="fill:rgb(253,210,164);fill-rule:nonzero;"/>
        </g>
        <g transform="matrix(1,0,0,1,305.306,265.99)">
            <path d="M0,0.435C-1.621,0.025 -3.211,-0.749 -4.787,-1.764C-14.259,-7.863 -23.189,-22.966 -34.711,-24.236C-45.095,-25.381 -44.903,-11.771 -38.28,-4.651C-31.657,2.469 -18.117,6.71 -11.953,13.055C-5.788,19.399 -2.882,25.816 -2.882,25.816C-2.882,25.816 0.989,25.66 5.566,23.614C10.203,21.542 15.556,17.52 18.352,9.746C18.418,9.565 18.489,9.391 18.551,9.205C18.551,9.205 12.595,3.624 0,0.435" style="fill:rgb(47,22,77);fill-rule:nonzero;"/>
        </g>
        <g transform="matrix(1,0,0,1,203.625,354.421)">
            <path d="M0,-14.314C0.841,-15.985 1.282,-17.567 0.375,-18.171C-1.875,-19.671 -6.875,-14.921 -6.875,-14.921C-6.875,-14.921 -6.625,-19.921 -9.125,-20.171C-11.146,-20.374 -17.742,-14.855 -21.515,-9.563C-22.409,-8.31 -23.146,-7.07 -23.625,-5.921C-24.908,-2.843 -24.375,3.829 -19.375,5.579C-18.253,5.971 -16.486,6.06 -14.411,5.942C-7.237,5.533 3.656,2.63 4.625,1.079C5.875,-0.921 -0.375,-3.171 -0.375,-3.171C-0.375,-3.171 4.125,-4.921 3.375,-6.921C3.214,-7.351 2.803,-7.696 2.269,-7.978C0.317,-9.013 -3.375,-9.171 -3.375,-9.171C-3.375,-9.171 -1.245,-11.841 0,-14.314" style="fill:rgb(242,110,44);fill-rule:nonzero;"/>
        </g>
        <g transform="matrix(1,0,0,1,183.203,411.494)">
            <path d="M0,-43.111C-4.157,-41.407 -9.379,-41.905 -11.953,-44.994C-16.953,-50.994 -17.703,-59.244 -13.203,-63.744C-12.359,-64.588 -11.374,-65.212 -10.332,-65.669C-12.771,-68.498 -19.624,-75.351 -30.735,-78.152L-32.903,-76.99C-30.19,-76.407 -28.077,-73.75 -28.119,-70.976C-32.141,-68.846 -36.162,-66.716 -40.184,-64.586C-38.299,-63.416 -36.414,-62.246 -34.529,-61.076C-40.639,-51.793 -50.461,-45.029 -61.314,-42.633C-52.821,-35.299 -40.288,-32.987 -29.738,-36.807C-34.459,-26.822 -44.542,-20.096 -55.242,-17.36C-65.943,-14.624 -77.246,-15.446 -88.122,-17.371C-86.799,-15.723 -85.476,-14.075 -84.154,-12.426C-95.775,-11.875 -107.553,-16.08 -116.197,-23.868C-116.298,-22.038 -117.087,-20.255 -118.373,-18.95C-123.001,-23.574 -126.804,-29.014 -129.596,-34.93C-127.138,-26.619 -118.494,-4.057 -96.906,-3.216C-96.906,-3.216 -103.712,-1.416 -108.453,-1.806C-108.453,-1.806 -88.781,35.041 -50.657,22.91C-50.657,22.91 -52.487,25.607 -54.281,27.055C-54.281,27.055 -31.416,31.982 -11.032,2.321C-11.032,2.321 -10.393,6.091 -11.459,8.311C-11.459,8.311 11.787,-5.447 0,-43.111" style="fill:rgb(218,80,39);fill-rule:nonzero;"/>
        </g>
        <g transform="matrix(1,0,0,1,195.878,358.387)">
            <path d="M0,-11.342C-3.702,-9.017 -7.903,-7.493 -12.235,-6.904C-12.449,-9.342 -11.412,-11.858 -9.542,-13.437C-11.179,-12.677 -12.948,-12.208 -14.745,-12.046C-15.199,-11.305 -15.59,-10.578 -15.878,-9.887C-17.161,-6.808 -16.628,-0.137 -11.628,1.613C-10.506,2.006 -8.739,2.095 -6.664,1.976C0.51,1.567 11.403,-1.336 12.372,-2.887C13.622,-4.887 7.372,-7.137 7.372,-7.137C7.372,-7.137 11.872,-8.887 11.122,-10.887C10.961,-11.316 10.55,-11.661 10.016,-11.944C9.975,-11.966 9.928,-11.985 9.885,-12.007C5.728,-9.733 1.571,-7.458 -2.586,-5.184C-2.13,-7.377 -1.247,-9.481 0,-11.342" style="fill:rgb(218,80,39);fill-rule:nonzero;"/>
        </g>
        <g transform="matrix(1,0,0,1,123.194,372.057)">
            <path d="M0,-35.971C0,-35.971 1.925,-33.413 4.902,-32.575C4.902,-32.575 -6.138,-31.4 -20.273,-18.562C-34.408,-5.723 -55.105,0.669 -70.386,1.468C-70.386,1.468 -70.334,1.709 -70.235,2.116C-69.682,2.262 -69.115,2.372 -68.56,2.462C-56.521,4.395 -43.912,2.624 -32.871,-2.552C-16.055,-10.434 -3.272,-25.721 14.186,-32.057C11.382,-33.602 8.466,-34.943 5.467,-36.064C11.364,-37.295 17.261,-38.526 23.158,-39.757C16.587,-40.366 8.863,-39.492 0,-35.971" style="fill:rgb(250,172,73);fill-rule:nonzero;"/>
        </g>
        <g transform="matrix(1,0,0,1,185.919,336.246)">
            <path d="M0,4.108C1.322,3.322 2.714,2.656 4.162,2.137C5.06,1.815 6.074,1.55 6.944,1.941C8.427,2.607 8.561,4.625 8.47,6.247C10.139,5.037 11.853,3.804 13.837,3.242C15.175,2.862 16.671,2.858 17.958,3.332C18.623,1.865 18.892,0.544 18.081,0.004C15.831,-1.496 10.831,3.254 10.831,3.254C10.831,3.254 11.081,-1.746 8.581,-1.996C7.145,-2.139 3.402,0.609 0,4.108" style="fill:rgb(250,172,73);fill-rule:nonzero;"/>
        </g>
        <g transform="matrix(1,0,0,1,316.359,214.644)">
            <path d="M0,16.213C14.308,3.689 14.035,-7.091 13.547,-20.498C13.059,-33.906 7.804,-46.88 -0.015,-57.782C-2.916,-61.827 -6.241,-65.68 -10.47,-68.306C-12.029,-69.274 -13.681,-70.055 -15.395,-70.67C-19.335,-68.869 -23.181,-66.973 -26.853,-65.081C-41.944,-57.307 -60.763,-46.665 -78.229,-37.852C-81.593,-29.637 -83.081,-20.723 -83.63,-11.846C-84.158,-3.307 -83.869,5.265 -83.231,13.796C-79.822,13.252 -76.905,10.401 -76.283,7.004C-70.25,26.31 -73.131,48.209 -83.951,65.298C-82.128,64.632 -80.306,63.967 -78.483,63.302C-81.267,69.733 -81.527,77.218 -79.196,83.826C-78.186,83.028 -77.574,81.748 -77.587,80.46C-74.642,85.429 -68.056,86.648 -62.284,86.841C-61.661,86.861 -61.037,86.875 -60.413,86.883C-55.372,68.264 -56.609,46.175 -56.609,38.356C-56.609,31.506 -54.06,26.162 -52.285,23.263C-53.707,22.922 -55.147,22.539 -56.609,22.106C-70.359,0.356 -60.109,-25.394 -60.109,-25.394C-62.609,-15.644 -55.609,-8.394 -55.609,-8.394C-54.609,-16.894 -48.109,-27.894 -40.859,-32.894C-33.609,-37.894 -30.109,-47.894 -30.109,-47.894C-28.359,-41.894 -33.109,-33.894 -33.109,-33.894C-16.609,-40.644 -13.609,-53.644 -13.609,-53.644C-5.109,-48.894 -4.109,-50.144 -4.109,-50.144C-4.109,-50.144 8.141,-30.144 10.391,-11.644C11.973,1.358 -0.523,19.052 -23.018,23.995C-20.453,26.241 -18.582,29.144 -17.08,32.257C-16.721,33.003 -16.328,33.709 -15.916,34.396C-14.962,31.442 -13.142,28.693 -11.032,26.377C-7.663,22.679 -3.764,19.508 0,16.213" style="fill:rgb(218,80,39);fill-rule:nonzero;"/>
        </g>
        <g transform="matrix(1,0,0,1,308.778,143.9)">
            <path d="M0,114.808C2.596,105.964 4.031,98.61 6.222,95.433C12.889,85.766 36.222,68.1 23.222,32.433C21.956,28.96 20.567,25.834 19.096,23.004C12.236,9.806 3.546,3.258 -3.408,0C9.146,7.314 18.587,19.87 21.958,34.018C23.941,42.342 23.908,50.997 23.863,59.555C23.85,62.041 23.835,64.551 23.29,66.977C22.632,69.913 21.221,72.624 19.662,75.197C13.469,85.418 4.638,94.226 0.803,105.545C-0.093,108.189 -0.693,110.917 -1.187,113.667C-0.798,114.046 -0.403,114.427 0,114.808" style="fill:rgb(250,172,73);fill-rule:nonzero;"/>
        </g>
        <g transform="matrix(-0.699088,-0.715035,-0.715035,0.699088,279.377,170.965)">
            <path d="M-9.604,-22.988C-9.588,-22.992 -9.574,-22.997 -9.559,-23.001C-10.685,-14.14 -10.693,-5.139 -9.604,3.726C-9.669,3.941 -9.704,4.071 -9.704,4.071C-15.445,-10.062 -11.006,-20.319 -9.604,-22.988" style="fill:rgb(242,110,44);fill-rule:nonzero;"/>
        </g>
        <g transform="matrix(1,0,0,1,275.5,193.007)">
            <path d="M0,-11.257C5.326,-14.93 8.625,-21.296 10.003,-24.42C10,-24.447 10.002,-24.473 9.999,-24.5C8.333,-20.884 4.85,-18.517 1.62,-16.188C-3.712,-12.343 -8.866,-8.01 -12.299,-2.403C-14.873,1.802 -16.366,6.846 -15.984,11.705C-15.277,12.687 -14.75,13.243 -14.75,13.243C-13.75,4.743 -7.25,-6.257 0,-11.257" style="fill:rgb(242,110,44);fill-rule:nonzero;"/>
        </g>
        <g transform="matrix(1,0,0,1,228.383,220.529)">
            <path d="M0,85.597C-9.47,81.402 -17.371,72.055 -16.812,61.712C-16.388,53.888 -11.448,47.153 -8.462,39.909C-1.837,23.839 -5.039,5.715 -11.208,-10.826C-10.318,-6.098 -9.413,-1.609 -8.745,2.755C-6.646,16.463 -6.905,29.055 -17.467,44.805C-30.836,64.741 -19.506,96.423 24.493,89.931C24.547,89.805 24.597,89.673 24.651,89.546C16.191,89.679 7.679,88.998 0,85.597" style="fill:rgb(250,172,73);fill-rule:nonzero;"/>
        </g>
        <g transform="matrix(1,0,0,1,303.205,192.387)">
            <path d="M0,-49.431C-4.727,-47.339 -9.332,-45.074 -13.7,-42.824C-34.519,-32.099 -62.449,-15.895 -84.108,-6.603C-84.981,-4.834 -85.799,-2.64 -86.362,0C-84.394,-1.402 -82.31,-2.651 -80.174,-3.735C-72.579,-7.59 -64.264,-9.756 -56.216,-12.546C-34.43,-20.099 -14.32,-32.437 2.292,-48.427C1.506,-48.799 0.737,-49.139 0,-49.431" style="fill:rgb(218,80,39);fill-rule:nonzero;"/>
        </g>
        <g transform="matrix(1,0,0,1,247.186,167.142)">
            <path d="M0,-31.314C-4.927,-32.466 -9.854,-33.617 -14.781,-34.769C-19.096,-35.778 -23.628,-36.785 -27.901,-35.613C-30.32,-34.95 -32.686,-33.591 -35.169,-33.957C-37.651,-34.324 -39.6,-37.849 -37.568,-39.321C-42.611,-41.905 -49.646,-33.777 -53.55,-37.885C-54.832,-39.235 -55.254,-41.663 -57.086,-41.994C-58.225,-42.2 -59.284,-41.41 -60.147,-40.639C-66.723,-34.763 -71.665,-27.078 -74.286,-18.658C-75.965,-13.266 -76.729,-7.541 -79.27,-2.498C-81.812,2.546 -86.828,6.95 -92.457,6.486C-93.825,6.373 -95.11,5.986 -96.33,5.42C-92.117,9.456 -86.031,10.886 -81.609,8.675C-75.746,5.744 -69.616,-8.647 -66.418,-16.376C-63.22,-24.105 -61.355,-23.572 -58.423,-24.105C-55.492,-24.638 -54.959,-20.907 -52.294,-21.706C-49.628,-22.506 -49.628,-25.704 -45.098,-25.171C-41.706,-24.772 -36.819,-14.511 -34.578,-8.15C-29.527,-15.153 -13.472,-23.773 2.449,-30.701C1.632,-30.923 0.81,-31.125 0,-31.314" style="fill:rgb(28,0,53);fill-rule:nonzero;"/>
        </g>
        <g transform="matrix(1,0,0,1,267.893,212.421)">
            <path d="M0,-57.069C-2.011,-56.059 -4.061,-54.994 -6.297,-54.741C-8.533,-54.488 -11.039,-55.238 -12.217,-57.155C-12.82,-58.137 -12.882,-59.417 -12.505,-60.497C-23.02,-53.898 -32.723,-47.524 -43.725,-43.105C-47.383,-41.635 -50.956,-39.786 -54.396,-37.656C-74.836,-24.996 -90.424,-2.056 -89.309,14.852C-89.309,14.852 -72.812,-16.623 -50.888,-25.74C-50.204,-26.024 -49.493,-26.338 -48.795,-26.637C-27.136,-35.929 0.794,-52.133 21.612,-62.858C25.98,-65.108 30.585,-67.373 35.313,-69.465C37.239,-70.318 39.188,-71.139 41.149,-71.921C26.909,-68.62 13.061,-63.631 0,-57.069" style="fill:rgb(28,0,53);fill-rule:nonzero;"/>
        </g>
        <g transform="matrix(1,0,0,1,217.005,215.684)">
            <path d="M0,-29.003C-5.602,-26.673 -10.846,-22.881 -15.555,-18.53C-16.972,-16.161 -18.122,-13.634 -18.937,-10.994C-19.95,-7.711 -20.255,-3.597 -17.643,-1.366C-14.991,0.898 -10.951,-0.104 -7.719,-1.412C-4.97,-2.525 -2.292,-3.772 0.334,-5.116C0.193,-5.859 0.052,-6.595 -0.088,-7.351C-2.063,-18.013 -0.155,-25.345 2.093,-29.901C1.395,-29.601 0.684,-29.288 0,-29.003" style="fill:rgb(162,15,89);fill-rule:nonzero;"/>
        </g>
        <g transform="matrix(1,0,0,1,303.205,150.064)">
            <path d="M0,-7.108C5.943,-4.753 13.64,0.046 20.407,9.77C27.891,6.277 34.873,1.716 41.027,-3.797C42.12,-4.777 43.218,-5.828 43.78,-7.184C45.08,-10.322 42.931,-14.044 39.926,-15.627C39.244,-15.986 38.531,-16.252 37.801,-16.463C25.674,-16.878 12.41,-12.6 0,-7.108" style="fill:rgb(162,15,89);fill-rule:nonzero;"/>
        </g>
        <g transform="matrix(1,0,0,1,193.577,205.927)">
            <path d="M0,-0.313L-0.216,-0.252C-0.287,-0.168 -0.356,-0.084 -0.427,0C-0.283,-0.103 -0.149,-0.215 0,-0.313" style="fill:rgb(223,70,132);fill-rule:nonzero;"/>
        </g>
        <g transform="matrix(1,0,0,1,186.136,225.197)">
            <path d="M0,6.189C-1.061,4.783 -1.126,2.884 -1.088,1.123C-0.993,-3.314 -0.336,-8.036 1.415,-12.07C-4.225,-4.263 -7.552,2.076 -7.552,2.076C-5.332,18.259 12.317,11.143 33.502,-1.914C33.391,-2.642 33.262,-3.381 33.138,-4.116C25.562,-0.524 17.948,2.988 10.295,6.415C6.897,7.937 2.243,9.161 0,6.189" style="fill:rgb(223,70,132);fill-rule:nonzero;"/>
        </g>
        <g transform="matrix(1,0,0,1,354.187,166.905)">
            <path d="M0,-30.616C0.968,-28.657 0.969,-26.158 0.133,-24.083C-1.029,-21.2 -3.438,-19.013 -5.934,-17.162C-12.948,-11.962 -21.239,-8.563 -28.223,-3.404C-27.574,-2.316 -26.934,-1.195 -26.313,0C-5.262,-9.41 11.708,-20.744 3.694,-28.847C2.491,-29.522 1.256,-30.103 0,-30.616" style="fill:rgb(223,70,132);fill-rule:nonzero;"/>
        </g>
        <g transform="matrix(1,0,0,1,267.56,166.764)">
            <path d="M0,-22.201C-2.571,-22.547 -5.142,-22.893 -7.713,-23.239C-10.214,-23.575 -12.798,-23.94 -14.947,-25.263C-16.69,-26.335 -18.052,-28.22 -18.201,-30.202C-34.032,-23.295 -49.93,-14.734 -54.952,-7.771C-55.089,-7.581 -55.224,-7.391 -55.345,-7.203C-57.019,-4.599 -55.836,3.063 -54.063,8.001C-50.623,5.871 -47.05,4.022 -43.392,2.552C-28.301,-3.51 -15.653,-13.246 0,-22.201" style="fill:rgb(162,15,89);fill-rule:nonzero;"/>
        </g>
        <g transform="matrix(1,0,0,1,274.576,113.366)">
            <path d="M0,-0.443C-5.597,-4.441 -8.262,-2.841 -12.792,-4.707C-17.323,-6.573 -18.389,-7.372 -22.919,-7.372C-27.45,-7.372 -26.384,-3.908 -39.442,-4.707C-52.501,-5.507 -75.42,-11.903 -91.943,-6.839C-106.082,-2.506 -112.216,3.584 -113.86,11.43L-113.409,11.46C-110.091,5.355 -103.837,1.275 -97.23,-0.879C-90.624,-3.033 -83.602,-3.485 -76.667,-3.92C-70.017,-4.337 -63.243,-4.744 -56.775,-3.139C-53.155,-2.241 -49.715,-0.729 -46.124,0.278C-40.782,1.776 -35.125,2.137 -29.637,1.329C-23.556,0.434 -17.372,-1.869 -11.436,-0.278C-4.596,1.555 0.018,8.083 6.577,10.752C7.031,10.937 7.49,11.094 7.951,11.239C10.137,10.733 11.65,10.547 12.259,10.75C12.259,10.75 5.597,3.554 0,-0.443" style="fill:rgb(63,38,98);fill-rule:nonzero;"/>
        </g>
        <g transform="matrix(1,0,0,1,305.568,139.198)">
            <path d="M0,-10.474C-4.142,-9.397 -8.04,-8.181 -11.752,-6.868C-21.476,-3.429 -29.841,0.721 -37.486,5.067C-32.83,6.441 -27.835,4.569 -23.329,2.677C-11.539,-2.273 0.354,-7.523 13.044,-9.094C24.35,-10.494 35.852,-8.89 46.853,-5.895C39.607,-10.805 24.76,-16.915 0,-10.474" style="fill:rgb(63,38,98);fill-rule:nonzero;"/>
        </g>
        <g transform="matrix(1,0,0,1,286.836,133.775)">
            <path d="M0,-9.659C-0.791,-9.923 -3.097,-9.532 -6.431,-8.635C-6.083,-7.825 -5.545,-7.077 -4.924,-6.447C-3.783,-5.288 -2.385,-4.417 -1.145,-3.364C0.138,-2.276 1.267,-0.986 2.417,0.264C3.908,-0.321 5.423,-0.894 6.981,-1.445C5.284,-4.737 2.729,-8.749 0,-9.659" style="fill:rgb(223,70,132);fill-rule:nonzero;"/>
        </g>
        <g transform="matrix(1,0,0,1,283.022,165.939)">
            <path d="M0,69.569C-3.935,69.031 -10.893,69.173 -14.022,66.728C-20.546,61.633 -22.384,53.496 -20.689,45.395C-18.812,36.422 -10.251,24.79 -2.451,19.975C-2.701,21.359 -2.951,22.743 -3.201,24.127C2.435,21.752 8.171,19.315 12.806,15.325C17.44,11.335 20.878,5.465 20.417,-0.633C23.357,0.454 26.684,0.328 29.591,-0.828C29.36,-1.221 29.228,-1.439 29.228,-1.439C29.228,-1.439 28.228,-0.189 19.728,-4.939C19.728,-4.939 16.728,8.061 0.228,14.811C0.228,14.811 4.978,6.811 3.228,0.811C3.228,0.811 -0.272,10.811 -7.522,15.811C-14.772,20.811 -21.272,31.811 -22.272,40.311C-22.272,40.311 -29.272,33.061 -26.772,23.311C-26.772,23.311 -37.022,49.061 -23.272,70.811C-21.811,71.245 -20.371,71.627 -18.948,71.968C-9.531,74.227 -0.985,74.508 6.562,73.385C7.842,73.195 9.096,72.969 10.318,72.7C14.533,71.774 18.397,70.4 21.883,68.693C14.711,70.244 7.271,70.563 0,69.569" style="fill:rgb(248,164,122);fill-rule:nonzero;"/>
        </g>
        <g transform="matrix(1,0,0,1,323.172,294.358)">
            <path d="M0,-17.379C-2.899,-10.417 -7.918,-6.712 -12.3,-4.753C-10.73,-2.986 -8.657,-0.903 -6.935,0C-3.133,-5.04 -0.681,-11.102 0,-17.379" style="fill:rgb(248,164,122);fill-rule:nonzero;"/>
        </g>
        <g transform="matrix(1,0,0,1,302.423,242.254)">
            <path d="M0,49.552C0,49.552 3.872,49.396 8.448,47.35C10.544,46.414 12.785,45.073 14.871,43.173C12.222,43.957 9.466,44.338 6.728,44.049C2.677,43.62 -1.315,41.606 -3.549,38.199C-5.004,35.979 -5.659,33.305 -7.148,31.106C-10.262,26.511 -16.17,24.981 -21.271,22.792C-26.316,20.627 -31.082,17.385 -33.975,12.719C-36.302,8.966 -37.206,4.184 -36.014,0C-41.984,2.546 -40.961,13.104 -35.398,19.085C-28.775,26.205 -15.235,30.446 -9.07,36.791C-2.906,43.135 0,49.552 0,49.552" style="fill:rgb(28,0,53);fill-rule:nonzero;"/>
        </g>
        <g transform="matrix(1,0,0,1,323.857,257.569)">
            <path d="M0,17.627C0,17.627 -5.956,12.045 -18.551,8.857C-20.172,8.446 -21.762,7.672 -23.339,6.658C-27.134,4.214 -30.842,0.325 -34.665,-3.541C-32.024,0.89 -29.558,5.54 -25.23,8.106C-22.598,9.667 -19.532,10.28 -16.631,11.255C-11.762,12.891 -7.259,15.608 -3.542,19.153C-2.862,19.802 -2.185,20.49 -1.497,21.168C-1.023,20.234 -0.585,19.24 -0.199,18.168C-0.134,17.986 -0.063,17.813 0,17.627" style="fill:rgb(63,38,98);fill-rule:nonzero;"/>
        </g>
        <g transform="matrix(1,0,0,1,306.204,254.218)">
            <path d="M0,1.975C-2.823,-0.875 -5.187,-3.714 -6.926,-7.317C-8.427,-10.43 -10.298,-13.334 -12.863,-15.58C-13.432,-15.455 -14.009,-15.341 -14.591,-15.233L-14.71,-15.081C-7.792,-8.552 -7.952,3.611 -0.132,9.029C1.298,10.02 2.911,10.708 4.512,11.39C7.683,12.741 10.855,14.093 14.027,15.444C16.094,16.324 18.327,17.199 20.54,17.555C20.566,17.492 20.599,17.419 20.624,17.359C21.069,16.27 21.296,15.532 21.296,15.532C14.327,14.423 7.818,9.445 2.574,4.49C1.679,3.644 0.817,2.8 0,1.975" style="fill:rgb(47,22,77);fill-rule:nonzero;"/>
        </g>
        <g transform="matrix(1,0,0,1,306.204,267.817)">
            <path d="M0,-11.624C-0.913,-12.546 -1.772,-13.469 -2.584,-14.415C0.571,-9.635 4.246,-5.325 9.057,-2.269C12.491,-0.088 16.346,1.339 20.227,2.558C20.483,2.638 20.741,2.715 21,2.791C21.195,2.259 21.296,1.933 21.296,1.933C14.327,0.824 7.818,-4.154 2.574,-9.109C1.679,-9.955 0.817,-10.799 0,-11.624" style="fill:rgb(63,38,98);fill-rule:nonzero;"/>
        </g>
        <g transform="matrix(1,0,0,1,327.459,283.429)">
            <path d="M0,38.994C-14.87,47.422 -33.61,49.102 -49.544,42.766C-55.941,40.222 -62.209,36.119 -64.894,29.781C-66.955,24.918 -66.635,19.422 -66.32,14.149C-65.666,3.196 -65.226,-8.007 -67.574,-18.655C-67.573,-5.851 -68.442,12.838 -74.583,27.031C-75.751,29.732 -77.115,32.263 -78.696,34.566C-78.868,34.817 -79.031,35.076 -79.209,35.321C-79.209,35.321 -73.959,55.821 -40.709,56.821C-13.175,57.649 -3.279,45.237 0,38.994" style="fill:rgb(28,0,53);fill-rule:nonzero;"/>
        </g>
        <g transform="matrix(1,0,0,1,317.611,318.558)">
            <path d="M0,-23.705C-0.367,-23.776 -0.739,-23.886 -1.111,-24.058C-1.225,-24.111 -1.347,-24.185 -1.465,-24.249C-1.351,-19.553 1.897,-15.244 4.634,-11.235C7.176,-7.51 9.378,-3.558 11.252,0.544C11.509,-0.367 11.582,-1.337 11.488,-2.357C10.908,-8.715 4.21,-16.927 0,-23.705" style="fill:rgb(63,38,98);fill-rule:nonzero;"/>
        </g>
        <g transform="matrix(1,0,0,1,279.256,240.593)">
            <path d="M0,2.724C0.638,3.499 1.84,3.528 2.784,3.188C4.464,2.583 5.71,0.964 5.924,-0.804C3.952,-0.662 1.921,-0.616 -0.169,-0.67C-0.302,-0.212 -0.396,0.257 -0.438,0.733C-0.5,1.427 -0.443,2.185 0,2.724" style="fill:rgb(199,27,114);fill-rule:nonzero;"/>
        </g>
        <g transform="matrix(1,0,0,1,287.108,240.307)">
            <path d="M0,0.866C0.599,1.364 1.293,1.849 2.072,1.83C2.356,1.822 2.66,1.731 2.829,1.502C2.968,1.313 2.993,1.064 2.995,0.829C2.999,0.395 2.937,-0.038 2.822,-0.455C2.706,-0.63 2.591,-0.815 2.476,-0.983C1.176,-0.789 -0.163,-0.654 -1.521,-0.547C-1.036,-0.053 -0.533,0.423 0,0.866" style="fill:rgb(199,27,114);fill-rule:nonzero;"/>
        </g>
        <g transform="matrix(1,0,0,1,328.388,343.353)">
            <path d="M0,-22.313L-0.193,-22.452C-2.567,-17.028 -11.63,-2.2 -41.638,-3.103C-74.888,-4.103 -80.138,-24.603 -80.138,-24.603C-80.138,-24.603 -83.976,-22.269 -85.662,-19.941C-86.251,-19.128 -86.582,-18.315 -86.388,-17.603C-85.638,-14.853 -76.888,-15.853 -76.888,-15.853C-76.888,-15.853 -77.303,-15.146 -77.779,-14.154C-78.608,-12.426 -79.606,-9.83 -78.945,-8.497C-78.587,-8.225 -78.217,-7.969 -77.853,-7.707C-74.957,-6.823 -67.638,-8.103 -67.638,-8.103C-67.638,-8.103 -67.834,-4.628 -67.293,-1.807C-64.937,-0.833 -62.507,-0.042 -60.031,0.565C-56.856,-0.73 -53.638,-2.603 -53.638,-2.603C-53.638,-2.603 -52.348,-0.671 -50.764,1.379C-50.599,1.593 -50.429,1.806 -50.259,2.02C-47.428,2.219 -44.583,2.276 -41.744,2.289C-41.386,2.29 -41.026,2.289 -40.667,2.289C-39.122,0.556 -37.888,-1.103 -37.888,-1.103C-37.888,-1.103 -36.643,0.387 -35.023,2.167C-30.779,1.963 -26.554,1.448 -22.574,0.262C-22.003,-0.973 -21.638,-1.853 -21.638,-1.853C-21.638,-1.853 -21.043,-1.304 -20.164,-0.557C-18.416,-1.224 -16.724,-2.036 -15.117,-3.043C-8.102,-7.437 -3.554,-14.837 0,-22.313" style="fill:rgb(162,15,89);fill-rule:nonzero;"/>
        </g>
        <g transform="matrix(1,0,0,1,229.167,353.95)">
            <path d="M0,-25.45C-1.333,-25.283 -4,-29.783 -8.333,-29.45C-9.088,-29.392 -9.895,-29.157 -10.707,-28.774C-13.885,-27.276 -17.162,-23.362 -17.986,-17.56C-18.162,-16.326 -18.239,-15.016 -18.167,-13.617C-18.103,-12.383 -17.978,-11.192 -17.798,-10.047C-16.566,-2.223 -12.692,3.344 -7.167,4.217C-6.557,4.313 -5.938,4.333 -5.322,4.293C-9.114,1.793 -12.174,-1.631 -13.299,-5.967C-13.95,-8.474 -13.908,-11.109 -13.706,-13.692C-13.475,-16.652 -12.898,-19.87 -10.645,-21.804C-8.392,-23.737 -4.028,-23.15 -3.431,-20.242C-1.142,-19.069 1.72,-19.541 3.782,-21.038C3.946,-21.939 4.078,-22.96 4.167,-24.117C4.167,-24.126 4.166,-24.134 4.166,-24.143C4.321,-26.458 1.328,-25.616 0,-25.45" style="fill:rgb(28,0,53);fill-rule:nonzero;"/>
        </g>
        <g transform="matrix(1,0,0,1,224.394,335.962)">
            <path d="M0,16.748C0.944,17.077 2.072,16.891 2.841,16.293C2.445,16.403 1.987,16.446 1.44,16.371C0.122,16.191 -0.784,14.524 -1.245,12.304C-2.068,8.343 -1.47,2.614 0.773,0.371C0.773,0.371 0.94,1.704 2.273,2.704C2.596,2.947 3.107,3.188 3.705,3.262C4.039,3.303 4.399,3.29 4.771,3.196C4.133,2.81 3.542,2.281 3.037,1.748C2.329,1.001 1.582,0.182 0.574,-0.031C-0.837,-0.329 -2.248,0.738 -2.839,2.053C-3.429,3.368 -3.397,4.867 -3.353,6.309C-3.32,7.403 -3.287,8.497 -3.254,9.591C-3.211,10.989 -3.165,12.412 -2.71,13.734C-2.255,15.056 -1.32,16.287 0,16.748" style="fill:rgb(63,38,98);fill-rule:nonzero;"/>
        </g>
        <g transform="matrix(1,0,0,1,235.385,316.275)">
            <path d="M0,8.81C1.647,9.425 3.43,9.17 5.159,8.698C5.328,8.13 5.493,7.53 5.649,6.87C5.651,6.86 5.651,6.853 5.653,6.843C5.781,6.276 5.684,5.874 5.444,5.59C4.726,4.74 2.742,4.938 1.74,4.907C0.396,4.865 -1.54,0.006 -5.873,-0.337C-9.398,-0.615 -14.577,2.533 -16.926,8.901C-16.113,8.518 -15.307,8.283 -14.552,8.225C-13.488,8.143 -12.526,8.354 -11.658,8.715C-11.438,8.455 -11.208,8.203 -10.954,7.972C-8.962,6.168 -5.856,5.715 -3.432,6.875C-2.246,7.443 -1.232,8.349 0,8.81" style="fill:rgb(28,0,53);fill-rule:nonzero;"/>
        </g>
        <g transform="matrix(1,0,0,1,282.065,205.326)">
            <path d="M0,-0.225C0.011,-0.159 0.011,-0.093 0.019,-0.026C0.023,0 0.017,-0.065 0,-0.225" style="fill:rgb(28,0,53);fill-rule:nonzero;"/>
        </g>
        <g transform="matrix(1,0,0,1,304.252,216.903)">
            <path d="M0,-8.961C-1.534,-8.491 -2.629,-7.459 -4.009,-6.695C-5.347,-5.955 -6.683,-6.138 -8.131,-5.991C-9.448,-5.857 -9.918,-4.02 -9.082,-3.129C-5.783,0.385 1.909,-2.026 2.503,-6.794C2.66,-8.061 1.257,-9.346 0,-8.961" style="fill:white;fill-rule:nonzero;"/>
        </g>
        <g transform="matrix(1,0,0,1,275.723,205.208)">
            <path d="M0,-11.287C-2.579,-10.076 -3.74,-7.532 -4.033,-4.828C-4.279,-2.558 -3.536,0.937 -1.23,1.858C-0.457,2.167 0.448,1.387 0.413,0.607C0.352,-0.707 -0.466,-1.826 -0.739,-3.12C-1.1,-4.826 -0.572,-6.662 0.65,-7.879C3.419,-10.634 8.328,-6.894 9.371,-4.184C9.624,-3.527 10.642,-3.583 10.645,-4.356C10.666,-9.33 4.614,-13.454 0,-11.287" style="fill:rgb(28,0,53);fill-rule:nonzero;"/>
        </g>
        <g transform="matrix(1,0,0,1,307.735,191.947)">
            <path d="M0,-6.553C-1.396,-8.168 -4.275,-8.233 -6.244,-7.518C-10.563,-5.95 -10.42,-1.454 -7.753,1.348C-7.437,1.68 -6.713,1.386 -6.873,0.973C-7.7,-1.167 -8.352,-4.364 -5.578,-5.657C-3.878,-6.448 -2.092,-6.076 -1.175,-4.655C-0.542,-3.673 -0.467,-2.043 0.746,-1.447C1.206,-1.221 1.813,-1.356 1.982,-1.799C2.493,-3.138 0.944,-5.46 0,-6.553" style="fill:rgb(28,0,53);fill-rule:nonzero;"/>
        </g>
        <g transform="matrix(1,0,0,1,277.695,221.777)">
            <path d="M0,-7.542C-1.454,-8.996 -3.538,-9.08 -5.138,-8.145C-5.144,-8.165 -5.149,-8.186 -5.155,-8.207C-6.115,-7.522 -7.28,-7.108 -8.224,-6.418C-9.233,-5.679 -9.967,-4.709 -10.202,-3.577C-10.627,-2.566 -10.467,-1.268 -9.938,-0.365C-9.095,1.074 -7.621,1.538 -6.075,1.353C-4.826,1.462 -3.496,0.763 -2.416,0.254C-1.518,-0.17 -0.699,-0.822 0,-1.526C1.633,-3.171 1.643,-5.899 0,-7.542" style="fill:rgb(247,169,147);fill-rule:nonzero;"/>
        </g>
        <g transform="matrix(1,0,0,1,321.332,198.006)">
            <path d="M0,-6.556C-1.263,-7.819 -3.076,-7.892 -4.466,-7.08C-4.471,-7.098 -4.476,-7.116 -4.48,-7.134C-5.315,-6.539 -6.328,-6.179 -7.148,-5.579C-8.025,-4.937 -8.663,-4.093 -8.868,-3.11C-9.236,-2.231 -9.097,-1.103 -8.638,-0.318C-7.905,0.933 -6.624,1.336 -5.28,1.175C-4.195,1.27 -3.039,0.662 -2.1,0.22C-1.319,-0.148 -0.608,-0.715 0,-1.327C1.42,-2.756 1.428,-5.128 0,-6.556" style="fill:rgb(247,169,147);fill-rule:nonzero;"/>
        </g>
        <g transform="matrix(1,0,0,1,275.666,191.291)">
            <path d="M0,-4.425C-1.265,-4.783 -2.691,-4.281 -3.731,-3.528C-4.702,-2.824 -5.871,-1.57 -5.575,-0.271C-5.493,0.087 -5.05,0.358 -4.694,0.229C-3.854,-0.076 -3.369,-0.92 -2.535,-1.271C-1.607,-1.661 -0.546,-1.737 0.273,-2.34C1.038,-2.903 1.024,-4.135 0,-4.425" style="fill:rgb(242,110,44);fill-rule:nonzero;"/>
        </g>
        <g transform="matrix(1,0,0,1,302.742,180.468)">
            <path d="M0,-3.22C-0.904,-3.867 -2.603,-3.541 -3.567,-3.152C-4.705,-2.692 -5.927,-1.824 -6.117,-0.518C-6.201,0.064 -5.658,0.647 -5.065,0.29C-4.262,-0.193 -3.62,-0.781 -2.696,-1.045C-1.836,-1.29 -0.759,-1.185 0,-1.636C0.632,-2.012 0.549,-2.827 0,-3.22" style="fill:rgb(242,110,44);fill-rule:nonzero;"/>
        </g>
        <g transform="matrix(-0.74642,-0.665475,-0.665475,0.74642,268.226,206.858)">
            <path d="M-0.817,-2.708C-0.219,-2.187 0.471,-1.184 0.33,-0.369C0.241,0.144 -0.361,0.424 -0.817,0.195C-1.646,-0.224 -1.92,-1.508 -1.848,-2.365C-1.807,-2.859 -1.142,-2.991 -0.817,-2.708" style="fill:rgb(247,169,147);fill-rule:nonzero;"/>
        </g>
        <g transform="matrix(1,0,0,1,269.308,203.619)">
            <path d="M0,-1.349C-0.681,-1.484 -1.224,-1.316 -1.738,-0.871C-2.148,-0.517 -1.777,0.035 -1.343,0.083C-0.872,0.135 -0.462,0.081 0,-0.029C0.387,-0.122 0.755,0.01 1.117,-0.186C1.243,-0.254 1.319,-0.427 1.272,-0.565C1.088,-1.099 0.51,-1.248 0,-1.349" style="fill:rgb(247,169,147);fill-rule:nonzero;"/>
        </g>
        <g transform="matrix(-0.23715,-0.971473,-0.971473,0.23715,267.932,199.728)">
            <path d="M-0.735,-1.402C-0.496,-0.998 -0.186,-0.643 0.043,-0.23C0.311,0.258 -0.166,0.957 -0.735,0.741C-1.556,0.429 -1.947,-0.263 -1.849,-1.13C-1.784,-1.702 -1.049,-1.932 -0.735,-1.402" style="fill:rgb(247,169,147);fill-rule:nonzero;"/>
        </g>
        <g transform="matrix(1,0,0,1,310.541,184.616)">
            <path d="M0,-1.495C-0.175,-1.778 -0.382,-1.894 -0.714,-1.904C-1.087,-1.916 -1.406,-1.642 -1.511,-1.297C-1.593,-1.026 -1.705,-0.79 -1.852,-0.547C-2.146,-0.063 -1.579,0.421 -1.118,0.187C-0.755,0.004 -0.435,-0.226 -0.129,-0.493C0.143,-0.732 0.185,-1.196 0,-1.495" style="fill:rgb(247,169,147);fill-rule:nonzero;"/>
        </g>
        <g transform="matrix(-0.859062,-0.511871,-0.511871,0.859062,310.005,187.026)">
            <path d="M-0.615,-2.591C-0.029,-2.097 0.006,-0.978 0.169,-0.266C0.278,0.213 -0.363,0.455 -0.615,0.044C-1.049,-0.661 -1.778,-1.472 -1.596,-2.343C-1.497,-2.82 -0.926,-2.853 -0.615,-2.591" style="fill:rgb(247,169,147);fill-rule:nonzero;"/>
        </g>
        <g transform="matrix(-0.603115,-0.797654,-0.797654,0.603115,310.726,188.976)">
            <path d="M-0.857,-1.686C-0.427,-1.217 -0.305,-0.549 -0.084,0.032C0.092,0.496 -0.563,0.891 -0.857,0.467C-1.234,-0.076 -1.696,-0.658 -1.699,-1.347C-1.7,-1.822 -1.186,-2.045 -0.857,-1.686" style="fill:rgb(247,169,147);fill-rule:nonzero;"/>
        </g>
        <g transform="matrix(-0.935199,-0.354123,-0.354123,0.935199,302.034,218.149)">
            <path d="M-0.52,-1.6C-0.229,-1.375 0.01,-1.211 0.255,-0.933C0.751,-0.374 0.094,0.376 -0.52,-0.067C-0.924,-0.358 -1.081,-0.659 -1.243,-1.124C-1.398,-1.57 -0.86,-1.864 -0.52,-1.6" style="fill:rgb(247,169,147);fill-rule:nonzero;"/>
        </g>
        <g transform="matrix(1,0,0,1,302.667,202.424)">
            <path d="M0,-3.291C-1.567,-5.052 -4.331,-2.089 -5.309,-4.656C-5.44,-5.001 -5.961,-4.872 -5.869,-4.501C-5.423,-2.69 -4.251,-2.557 -2.596,-2.693C-1.681,-2.768 -0.785,-2.731 -0.858,-1.629C-0.914,-0.787 -1.488,-0.121 -1.655,0.684C-1.797,1.37 -1.053,1.761 -0.533,1.337C0.669,0.355 1.062,-2.097 0,-3.291" style="fill:rgb(248,164,122);fill-rule:nonzero;"/>
        </g>
        <g transform="matrix(1,0,0,1,275.177,331.567)">
            <path d="M0,14.119C0.912,13.817 1.72,13.493 2.446,13.165C0.863,11.115 -0.427,9.183 -0.427,9.183C-0.427,9.183 -9.427,14.433 -12.177,13.433C-14.927,12.433 -14.427,3.683 -14.427,3.683C-14.427,3.683 -24.427,5.433 -25.677,3.433C-26.481,2.147 -25.426,-0.581 -24.569,-2.368C-25.786,-2.247 -26.992,-2.149 -28.176,-2.067C-28.446,-0.572 -29.397,0.711 -30.011,2.107C-30.646,3.549 -30.823,5.455 -29.654,6.51C-29.087,7.021 -28.316,7.224 -27.576,7.411C-25.412,7.958 -23.247,8.505 -21.083,9.051C-20.976,11.063 -20.803,13.185 -20.208,15.094C-10.891,16.487 -4.352,15.559 0,14.119" style="fill:rgb(248,164,122);fill-rule:nonzero;"/>
        </g>
        <g transform="matrix(1,0,0,1,430.397,279.794)">
            <path d="M0,-37.313C-5.338,-32.393 -12.206,-28.81 -19.463,-28.647C-23.358,-28.559 -27.369,-29.432 -31.086,-28.266C-33.774,-27.423 -36.022,-25.593 -38.506,-24.265C-41.661,-22.579 -45.175,-21.713 -48.565,-20.571C-54.8,-18.473 -60.706,-15.397 -66,-11.49C-67.818,-10.149 -69.644,-8.671 -71.845,-8.157C-73.365,-7.803 -74.956,-7.938 -76.506,-7.74C-78.87,-7.438 -81.06,-6.373 -83.201,-5.323C-88.571,-2.687 -93.942,-0.052 -99.313,2.583C-99.366,2.662 -99.397,2.706 -99.397,2.706C-99.397,2.706 -97.806,6.823 -100.299,9.15C-70.671,-4.52 -46.835,-14.84 -45.147,-16.044C-39.344,-20.186 -24.663,-24.233 -18.147,-19.044C-12.123,-14.247 -0.647,-28.044 3.103,-32.794C6.222,-36.746 7.779,-43.452 7.784,-46.463C5.488,-43.159 2.956,-40.037 0,-37.313" style="fill:rgb(177,110,70);fill-rule:nonzero;"/>
        </g>
        <g transform="matrix(1,0,0,1,428.826,263.51)">
            <path d="M0,-30.553C2.419,-31.712 4.867,-32.88 7.482,-33.465C6.429,-34.087 4.765,-34.416 1.924,-34.01C-3.326,-33.26 -22.826,-24.01 -46.076,-11.26C-55.644,-6.013 -66.093,-0.643 -75.083,3.863C-72.849,2.972 -70.64,2.001 -68.447,1.028C-45.479,-9.164 -22.66,-19.693 0,-30.553" style="fill:rgb(248,161,105);fill-rule:nonzero;"/>
        </g>
        <g transform="matrix(1,0,0,1,229.167,323.221)">
            <path d="M0,5.279C1.328,5.113 4.321,4.271 4.166,6.586C5.365,6.613 7.088,6.635 9.162,6.614C10.293,6.602 11.533,6.576 12.838,6.532C14.338,5.839 15.874,5.129 17.434,4.409C15.293,4.278 13.185,3.817 12.833,2.529C12.639,1.817 12.97,1.004 13.559,0.191C12.916,0.083 12.352,-0.015 11.872,-0.102C12,-0.669 11.903,-1.072 11.663,-1.356L-1.016,4.855C-0.618,5.141 -0.279,5.314 0,5.279" style="fill:rgb(177,110,70);fill-rule:nonzero;"/>
        </g>
        <g transform="matrix(1,0,0,1,267.667,82.528)">
            <path d="M0,14.472L-2.351,9.708L-7.608,8.944L-3.804,5.236L-4.702,0L0,2.472L4.702,0L3.804,5.236L7.608,8.944L2.351,9.708L0,14.472Z" style="fill:rgb(253,204,50);fill-rule:nonzero;"/>
        </g>
        <g transform="matrix(1,0,0,1,127.667,153.937)">
            <path d="M0,3.063L-3.764,3.439L-5.587,6.753L-7.109,3.29L-10.824,2.58L-8,0.063L-8.473,-3.69L-5.206,-1.782L-1.783,-3.391L-2.588,0.305L0,3.063Z" style="fill:rgb(253,204,50);fill-rule:nonzero;"/>
        </g>
        <g transform="matrix(1,0,0,1,72.3333,333.331)">
            <path d="M0,19.002L-6.914,15.996L-13.31,19.988L-12.588,12.484L-18.36,7.634L-11,6.002L-8.172,-0.986L-4.345,5.509L3.175,6.039L-1.82,11.686L0,19.002Z" style="fill:rgb(253,204,50);fill-rule:nonzero;"/>
        </g>
        <g transform="matrix(1,0,0,1,209,382.06)">
            <path d="M0,11.607L-3.552,9.411L-7.376,11.092L-6.385,7.035L-9.165,3.918L-5,3.607L-2.895,0L-1.312,3.864L2.769,4.752L-0.418,7.451L0,11.607Z" style="fill:rgb(253,204,50);fill-rule:nonzero;"/>
        </g>
        <g transform="matrix(1,0,0,1,395.667,314.966)">
            <path d="M0,4.701L-6.935,5.655L-10.08,11.908L-13.13,5.608L-20.049,4.549L-15,-0.299L-16.131,-7.207L-9.96,-3.903L-3.74,-7.113L-4.975,-0.223L0,4.701Z" style="fill:rgb(253,204,50);fill-rule:nonzero;"/>
        </g>
        <g transform="matrix(1,0,0,1,385,145.469)">
            <path d="M0,14.864L-2.748,10.296L-8.069,9.97L-4.574,5.945L-5.908,0.784L-1,2.864L3.496,0L3.035,5.311L7.148,8.702L1.954,9.904L0,14.864Z" style="fill:rgb(253,204,50);fill-rule:nonzero;"/>
        </g>
        <g transform="matrix(1,0,0,1,439,211.953)">
            <path d="M0,6.047L-3.264,5.436L-5.617,7.778L-6.045,4.486L-8.999,2.971L-6,1.547L-5.473,-1.731L-3.191,0.681L0.089,0.17L-1.5,3.085L0,6.047Z" style="fill:rgb(253,204,50);fill-rule:nonzero;"/>
        </g>
        <g transform="matrix(1,0,0,1,131.332,388.005)">
            <path d="M0,-57.222C5.778,-52.319 6.61,-43.711 5.733,-36.184C4.856,-28.657 2.714,-21.057 4.175,-13.621C5.579,-6.474 10.25,-0.281 15.979,4.216C22.244,9.135 30.097,12.315 38.055,11.965C46.012,11.615 53.954,7.388 57.766,0.394C48.914,3.427 38.727,0.183 31.84,-6.152C24.953,-12.487 20.992,-21.457 18.855,-30.568C17.175,-37.732 16.495,-45.164 13.934,-52.063C11.373,-58.961 6.423,-65.524 -0.657,-67.531C-7.736,-69.537 -16.672,-65.096 -17.361,-57.77C-12.35,-61.505 -4.766,-61.266 0,-57.222" style="fill:rgb(196,158,198);fill-rule:nonzero;"/>
        </g>
        <g transform="matrix(1,0,0,1,57.775,395.862)">
            <path d="M0,13.644C0.081,15.243 0.536,16.795 0.866,18.361C1.361,20.706 1.578,23.105 2.118,25.44C3.769,32.589 8.563,38.953 14.979,42.512C21.395,46.072 29.332,46.771 36.271,44.387C27.967,40.272 21.572,32.846 17.664,24.443C13.755,16.04 12.192,6.697 11.954,-2.568C11.786,-9.095 12.217,-15.851 9.806,-21.918C7.394,-27.985 0.982,-33.127 -5.335,-31.478C4.639,-23.603 7.031,-8.67 2.734,3.29C1.518,6.676 -0.182,10.051 0,13.644" style="fill:rgb(196,158,198);fill-rule:nonzero;"/>
        </g>
        <g transform="matrix(1,0,0,1,390.735,249.768)">
            <path d="M0,11.798C1.758,18.278 2.781,25.226 0.851,31.657C-1.079,38.088 -6.613,43.81 -13.318,44.16C-8.22,41.287 -4.913,35.49 -5.034,29.639C-5.172,22.929 -9.419,16.655 -8.792,9.972C-8.31,4.837 -4.987,0.256 -4.729,-4.895C-4.566,-8.165 -5.659,-11.375 -5.749,-14.647C-5.935,-21.48 -1.212,-28.158 5.291,-30.26C11.795,-32.362 19.533,-29.71 23.381,-24.061C19.484,-26.051 14.597,-25.958 10.78,-23.821C6.962,-21.684 4.328,-17.566 3.988,-13.204C3.718,-9.741 4.716,-5.894 2.766,-3.019C2.013,-1.909 0.894,-1.093 0.103,-0.009C-2.303,3.288 -1.069,7.858 0,11.798" style="fill:rgb(196,158,198);fill-rule:nonzero;"/>
        </g>
        <g transform="matrix(1,0,0,1,414.116,287.518)">
            <path d="M0,-61.811C-0.516,-62.568 -1.106,-63.267 -1.75,-63.913C-1.922,-63.946 -2.095,-63.981 -2.267,-64.014C-7.416,-65.01 -13.346,-65.824 -17.383,-62.477C-19.883,-60.405 -21.056,-57.156 -21.836,-54.005C-22.551,-51.118 -23.029,-48.172 -23.265,-45.207C-23.384,-43.705 -23.446,-42.173 -23.949,-40.752C-24.427,-39.4 -25.281,-38.218 -25.942,-36.946C-28.463,-32.1 -28.065,-26.285 -27.15,-20.9C-26.236,-15.515 -24.864,-10.066 -25.646,-4.66C-26.108,-1.468 -27.575,1.74 -29.804,4.013C-26.364,1.687 -23.739,-2.063 -22.53,-6.093C-20.6,-12.523 -21.623,-19.472 -23.381,-25.952C-24.449,-29.892 -25.684,-34.461 -23.277,-37.759C-22.487,-38.843 -21.367,-39.659 -20.614,-40.769C-18.664,-43.644 -19.663,-47.49 -19.392,-50.954C-19.052,-55.316 -16.418,-59.433 -12.601,-61.571C-8.783,-63.708 -3.896,-63.801 0,-61.811" style="fill:rgb(174,141,177);fill-rule:nonzero;"/>
        </g>
        <g transform="matrix(1,0,0,1,187.289,332.344)">
            <path d="M0,58.784C-3.939,61.151 -8.32,62.755 -12.884,62.867C-16.656,62.959 -20.373,62.039 -24.005,61.017C-27.469,60.042 -31.016,58.91 -33.734,56.551C-35.541,54.982 -36.883,52.951 -38.078,50.877C-40.091,47.383 -41.755,43.689 -43.038,39.867C-43.703,37.885 -44.132,35.36 -42.552,33.992C-42.058,33.565 -41.377,33.261 -41.184,32.638C-41.004,32.055 -41.334,31.451 -41.637,30.923C-44.219,26.419 -45.664,21.27 -45.804,16.08C-45.866,13.803 -45.685,11.481 -46.283,9.282C-46.874,7.106 -48.202,5.162 -48.612,2.945C-48.858,1.614 -48.762,0.231 -49.084,-1.083C-49.839,-4.162 -52.759,-6.28 -55.78,-7.241C-61.91,-9.192 -69.095,-7.109 -73.294,-2.251C-73.299,-2.202 -73.313,-2.157 -73.318,-2.108C-68.307,-5.843 -60.722,-5.604 -55.957,-1.56C-50.178,3.342 -49.346,11.95 -50.223,19.477C-51.1,27.005 -53.242,34.605 -51.781,42.041C-50.377,49.187 -45.706,55.38 -39.978,59.878C-33.712,64.796 -25.859,67.976 -17.902,67.626C-11.042,67.325 -4.201,64.137 0,58.784" style="fill:rgb(174,141,177);fill-rule:nonzero;"/>
        </g>
        <g transform="matrix(1,0,0,1,90.3074,365.229)">
            <path d="M0,75.987C-5.413,74.31 -10.469,71.472 -14.671,67.667C-16.602,65.918 -18.383,63.935 -19.476,61.57C-20.644,59.04 -20.964,56.218 -21.588,53.502C-23.38,45.706 -27.784,38.314 -27.249,30.333C-26.832,24.112 -23.412,17.923 -25.143,11.934C-26.329,7.829 -29.703,4.791 -32.925,1.985C-34.14,0.927 -35.371,-0.135 -36.677,-1.077C-37.073,-1.025 -37.471,-0.949 -37.867,-0.845C-27.893,7.03 -25.502,21.963 -29.798,33.923C-31.014,37.309 -32.714,40.684 -32.532,44.277C-32.452,45.876 -31.997,47.428 -31.666,48.994C-31.172,51.339 -30.954,53.738 -30.415,56.073C-28.764,63.222 -23.97,69.586 -17.554,73.145C-12.265,76.079 -5.945,77.064 0,75.987" style="fill:rgb(174,141,177);fill-rule:nonzero;"/>
        </g>
        <g transform="matrix(1,0,0,1,310.333,116.37)">
            <path d="M0,-1.406C-0.907,-1.406 -0.907,0 0,0C0.907,0 0.907,-1.406 0,-1.406" style="fill:white;fill-rule:nonzero;"/>
        </g>
        <g transform="matrix(1,0,0,1,303.187,73.1973)">
            <path d="M0,-0.283C-0.023,-0.388 -0.047,-0.492 -0.07,-0.597C-0.389,-2.037 -2.65,-2.037 -2.97,-0.597C-2.993,-0.492 -3.017,-0.388 -3.04,-0.283C-3.179,0.342 -2.977,1.217 -2.315,1.497C-1.709,1.754 -1.331,1.754 -0.724,1.497C-0.063,1.217 0.139,0.342 0,-0.283" style="fill:white;fill-rule:nonzero;"/>
        </g>
        <g transform="matrix(1,0,0,1,241.667,93.486)">
            <path d="M0,-2.305C-1.486,-2.305 -1.486,0 0,0C1.486,0 1.486,-2.305 0,-2.305" style="fill:white;fill-rule:nonzero;"/>
        </g>
        <g transform="matrix(1,0,0,1,191,84.9583)">
            <path d="M0,-1.25C-0.806,-1.25 -0.806,0 0,0C0.806,0 0.806,-1.25 0,-1.25" style="fill:white;fill-rule:nonzero;"/>
        </g>
        <g transform="matrix(-0.786791,-0.61722,-0.61722,0.786791,138.689,103.065)">
            <path d="M-1.128,-1.976C-0.553,-1.959 -0.244,-1.705 0.104,-1.271C0.739,-0.475 -0.204,0.728 -1.128,0.301C-1.634,0.067 -1.954,-0.173 -2.107,-0.729C-2.3,-1.43 -1.856,-1.996 -1.128,-1.976" style="fill:white;fill-rule:nonzero;"/>
        </g>
        <g transform="matrix(1,0,0,1,147.667,132.724)">
            <path d="M0,-0.781C-0.504,-0.781 -0.504,0 0,0C0.504,0 0.504,-0.781 0,-0.781" style="fill:white;fill-rule:nonzero;"/>
        </g>
        <g transform="matrix(1,0,0,1,106.333,171.683)">
            <path d="M0,-1.367C-0.882,-1.367 -0.882,0 0,0C0.882,0 0.882,-1.367 0,-1.367" style="fill:white;fill-rule:nonzero;"/>
        </g>
        <g transform="matrix(1,0,0,1,117.667,200.856)">
            <path d="M0,-3.165C-0.858,-3.165 -1.478,-2.33 -1.262,-1.509C-1.181,-1.202 -1.066,-0.933 -0.894,-0.667C-0.463,0 0.463,0 0.894,-0.667C1.065,-0.933 1.181,-1.202 1.262,-1.509C1.478,-2.33 0.858,-3.165 0,-3.165" style="fill:white;fill-rule:nonzero;"/>
        </g>
        <g transform="matrix(1,0,0,1,81.3134,228.506)">
            <path d="M0,-3.011C-0.191,-3.115 -0.397,-3.172 -0.611,-3.177C-3.257,-3.764 -3.256,0.753 -0.609,0.164C-0.396,0.159 -0.19,0.102 0,-0.002C0.819,-0.275 1.086,-0.886 1.007,-1.506C1.086,-2.127 0.819,-2.738 0,-3.011" style="fill:white;fill-rule:nonzero;"/>
        </g>
        <g transform="matrix(1,0,0,1,91.6577,261.411)">
            <path d="M0,-0.129L-0.549,-0.865C-0.889,-1.321 -1.515,-1.491 -1.96,-1.046C-2.404,-0.602 -2.234,0.024 -1.778,0.365C-1.533,0.547 -1.287,0.73 -1.042,0.913C-0.441,1.362 0.449,0.473 0,-0.129" style="fill:white;fill-rule:nonzero;"/>
        </g>
        <g transform="matrix(1,0,0,1,96.3333,252.919)">
            <path d="M0,-1.172C-0.756,-1.172 -0.756,0 0,0C0.756,0 0.756,-1.172 0,-1.172" style="fill:white;fill-rule:nonzero;"/>
        </g>
        <g transform="matrix(1,0,0,1,109.097,269.044)">
            <path d="M0,-2.754C-0.22,-2.85 -0.462,-2.866 -0.715,-2.784C-0.731,-2.784 -0.747,-2.783 -0.764,-2.783C-2.577,-2.76 -2.577,0.006 -0.764,0.029C-0.747,0.03 -0.731,0.03 -0.715,0.03C-0.462,0.112 -0.22,0.096 0,0C0.805,-0.131 1.055,-0.745 0.96,-1.377C1.055,-2.009 0.805,-2.623 0,-2.754" style="fill:white;fill-rule:nonzero;"/>
        </g>
        <g transform="matrix(1,0,0,1,93,291.801)">
            <path d="M0,-1.602C-1.033,-1.602 -1.033,0 0,0C1.033,0 1.033,-1.602 0,-1.602" style="fill:white;fill-rule:nonzero;"/>
        </g>
        <g transform="matrix(1,0,0,1,67,328.802)">
            <path d="M0,-0.937C-0.605,-0.937 -0.605,0 0,0C0.605,0 0.605,-0.937 0,-0.937" style="fill:white;fill-rule:nonzero;"/>
        </g>
        <g transform="matrix(1,0,0,1,84.3333,353.879)">
            <path d="M0,-1.758C-1.133,-1.758 -1.133,0 0,0C1.134,0 1.134,-1.758 0,-1.758" style="fill:white;fill-rule:nonzero;"/>
        </g>
        <g transform="matrix(1,0,0,1,125.667,306.485)">
            <path d="M0,-2.969C-1.915,-2.969 -1.915,0 0,0C1.914,0 1.914,-2.969 0,-2.969" style="fill:white;fill-rule:nonzero;"/>
        </g>
        <g transform="matrix(1,0,0,1,191,378.015)">
            <path d="M0,-2.031C-1.31,-2.031 -1.31,0 0,0C1.31,0 1.31,-2.031 0,-2.031" style="fill:white;fill-rule:nonzero;"/>
        </g>
        <g transform="matrix(1,0,0,1,223.667,391.464)">
            <path d="M0,-3.594C-2.317,-3.594 -2.317,0 0,0C2.318,0 2.318,-3.594 0,-3.594" style="fill:white;fill-rule:nonzero;"/>
        </g>
        <g transform="matrix(1,0,0,1,215,402.331)">
            <path d="M0,-1.328C-0.856,-1.328 -0.856,0 0,0C0.856,0 0.856,-1.328 0,-1.328" style="fill:white;fill-rule:nonzero;"/>
        </g>
        <g transform="matrix(1,0,0,1,243,432.054)">
            <path d="M0,-2.109C-1.36,-2.109 -1.36,0 0,0C1.36,0 1.36,-2.109 0,-2.109" style="fill:white;fill-rule:nonzero;"/>
        </g>
        <g transform="matrix(1,0,0,1,275.957,394.722)">
            <path d="M0,-2.11C-0.201,-2.185 -0.403,-2.261 -0.604,-2.336C-1.426,-2.643 -2.286,-1.86 -2.286,-1.055C-2.286,-0.25 -1.426,0.533 -0.604,0.225C-0.403,0.15 -0.201,0.075 0,-0.001C1.038,-0.389 1.038,-1.722 0,-2.11" style="fill:white;fill-rule:nonzero;"/>
        </g>
        <g transform="matrix(1,0,0,1,296.333,408.447)">
            <path d="M0,-1.562C-1.008,-1.562 -1.008,0 0,0C1.008,0 1.008,-1.562 0,-1.562" style="fill:white;fill-rule:nonzero;"/>
        </g>
        <g transform="matrix(1,0,0,1,304.333,393.703)">
            <path d="M0,-1.406C-0.907,-1.406 -0.907,0 0,0C0.907,0 0.907,-1.406 0,-1.406" style="fill:white;fill-rule:nonzero;"/>
        </g>
        <g transform="matrix(1,0,0,1,337.781,402.625)">
            <path d="M0,-2.569C-0.258,-2.409 -0.517,-2.248 -0.775,-2.088C-1.489,-1.645 -1.649,-0.641 -1.04,-0.033C-0.431,0.576 0.572,0.417 1.015,-0.297C1.176,-0.556 1.336,-0.814 1.497,-1.072C2.073,-2.001 0.928,-3.145 0,-2.569" style="fill:white;fill-rule:nonzero;"/>
        </g>
        <g transform="matrix(1,0,0,1,351.667,368.292)">
            <path d="M0,-1.25C-0.806,-1.25 -0.806,0 0,0C0.806,0 0.806,-1.25 0,-1.25" style="fill:white;fill-rule:nonzero;"/>
        </g>
        <g transform="matrix(1,0,0,1,365,369.135)">
            <path d="M0,-1.602C-1.033,-1.602 -1.033,0 0,0C1.033,0 1.033,-1.602 0,-1.602" style="fill:white;fill-rule:nonzero;"/>
        </g>
        <g transform="matrix(-0.841398,-0.540417,-0.540417,0.841398,365.863,347.748)">
            <path d="M-0.773,-1.13C-0.576,-1.041 -0.38,-0.952 -0.183,-0.863C0.659,-0.482 -0.077,0.663 -0.773,0.056C-0.937,-0.086 -1.099,-0.228 -1.262,-0.369C-1.605,-0.668 -1.188,-1.318 -0.773,-1.13" style="fill:white;fill-rule:nonzero;"/>
        </g>
        <g transform="matrix(1,0,0,1,394.531,352.382)">
            <path d="M0,-1.431C-0.207,-1.488 -0.413,-1.544 -0.62,-1.601C-1.196,-1.758 -1.782,-1.313 -1.782,-0.715C-1.782,-0.118 -1.196,0.327 -0.62,0.17C-0.413,0.113 -0.207,0.057 0,0C0.709,-0.193 0.709,-1.237 0,-1.431" style="fill:white;fill-rule:nonzero;"/>
        </g>
        <g transform="matrix(1,0,0,1,414.197,316.249)">
            <path d="M0,-0.675C-0.044,-1.177 -0.328,-1.62 -0.87,-1.769C-1.608,-1.972 -2.474,-1.389 -2.428,-0.582C-2.394,-0.003 -2.201,0.709 -1.623,0.987C-0.975,1.297 -0.399,1.235 0.133,0.747C0.59,0.328 0.424,-0.325 0,-0.675" style="fill:white;fill-rule:nonzero;"/>
        </g>
        <g transform="matrix(1,0,0,1,403.513,282.784)">
            <path d="M0,-2.661C-0.407,-2.923 -0.888,-2.788 -1.231,-2.502C-1.272,-2.468 -1.373,-2.347 -1.448,-2.255C-1.462,-2.252 -1.472,-2.251 -1.491,-2.247C-2.696,-2.014 -2.52,-0.317 -1.491,0.013C-0.712,0.262 0.028,0.059 0.501,-0.626C0.967,-1.299 0.631,-2.255 0,-2.661" style="fill:white;fill-rule:nonzero;"/>
        </g>
        <g transform="matrix(1,0,0,1,442.333,230.175)">
            <path d="M0,-1.016C-0.655,-1.016 -0.655,0 0,0C0.655,0 0.655,-1.016 0,-1.016" style="fill:white;fill-rule:nonzero;"/>
        </g>
        <g transform="matrix(1,0,0,1,471,227.781)">
            <path d="M0,-1.562C-1.008,-1.562 -1.008,0 0,0C1.008,0 1.008,-1.562 0,-1.562" style="fill:white;fill-rule:nonzero;"/>
        </g>
        <g transform="matrix(-0.328423,-0.944531,-0.944531,0.328423,460.414,202.087)">
            <path d="M-0.501,-1.83C0.156,-1.709 0.215,-0.983 -0.159,-0.564C-0.03,-0.156 -0.11,0.283 -0.501,0.551C-1,0.895 -1.802,0.685 -1.978,0.067C-2.272,-0.973 -1.709,-2.054 -0.501,-1.83" style="fill:white;fill-rule:nonzero;"/>
        </g>
        <g transform="matrix(1,0,0,1,448.333,209.979)">
            <path d="M0,-0.625C-0.403,-0.625 -0.403,0 0,0C0.403,0 0.403,-0.625 0,-0.625" style="fill:white;fill-rule:nonzero;"/>
        </g>
        <g transform="matrix(1,0,0,1,403.594,209.594)">
            <path d="M0,-1.188C-0.278,-1.47 -0.591,-1.576 -0.975,-1.63C-1.653,-1.725 -2.335,-1.361 -2.335,-0.594C-2.335,0.172 -1.653,0.537 -0.975,0.442C-0.591,0.388 -0.278,0.282 0,0C0.323,-0.328 0.323,-0.86 0,-1.188" style="fill:white;fill-rule:nonzero;"/>
        </g>
        <g transform="matrix(-0.18058,-0.98356,-0.98356,0.18058,384.386,202.883)">
            <path d="M-1.182,-0.857C-0.901,-0.71 -0.62,-0.565 -0.339,-0.418C0.515,0.027 -0.463,1.445 -1.182,0.804C-1.419,0.594 -1.655,0.383 -1.892,0.172C-2.497,-0.366 -1.901,-1.231 -1.182,-0.857" style="fill:white;fill-rule:nonzero;"/>
        </g>
        <g transform="matrix(1,0,0,1,401,176.917)">
            <path d="M0,-2.5C-1.612,-2.5 -1.612,0 0,0C1.612,0 1.612,-2.5 0,-2.5" style="fill:white;fill-rule:nonzero;"/>
        </g>
        <g transform="matrix(1,0,0,1,412.333,191.29)">
            <path d="M0,-1.914C-1.234,-1.914 -1.234,0 0,0C1.234,0 1.234,-1.914 0,-1.914" style="fill:white;fill-rule:nonzero;"/>
        </g>
        <g transform="matrix(1,0,0,1,419.667,149.033)">
            <path d="M0,-2.734C-1.763,-2.816 -1.763,0.082 0,0C0.815,-0.037 1.799,-0.376 1.799,-1.367C1.799,-2.358 0.815,-2.696 0,-2.734" style="fill:white;fill-rule:nonzero;"/>
        </g>
        <g transform="matrix(1,0,0,1,369.667,160.819)">
            <path d="M0,-2.305C-1.486,-2.305 -1.486,0 0,0C1.486,0 1.486,-2.305 0,-2.305" style="fill:white;fill-rule:nonzero;"/>
        </g>
        <g transform="matrix(1,0,0,1,373,131.84)">
            <path d="M0,-1.68C-1.083,-1.68 -1.083,0 0,0C1.083,0 1.083,-1.68 0,-1.68" style="fill:white;fill-rule:nonzero;"/>
        </g>
        <g transform="matrix(1,0,0,1,366.333,132.626)">
            <path d="M0,-0.586C-0.378,-0.586 -0.378,0 0,0C0.378,0 0.378,-0.586 0,-0.586" style="fill:white;fill-rule:nonzero;"/>
        </g>
        <g transform="matrix(-0.570149,0.821541,0.821541,0.570149,342.329,120.624)">
            <path d="M1.177,-1.036C1.52,-0.826 1.704,-0.607 1.907,-0.262C2.18,0.197 1.703,0.885 1.177,0.79C0.784,0.72 0.513,0.624 0.197,0.376C-0.676,-0.307 0.231,-1.614 1.177,-1.036" style="fill:white;fill-rule:nonzero;"/>
        </g>
        <g transform="matrix(-0.998709,0.0507964,0.0507964,0.998709,340.058,94.973)">
            <path d="M-1.799,-1.337C-0.917,-2.477 0.897,-0.838 -0.147,0.155C-0.655,0.638 -1.031,1.103 -1.799,0.986C-2.088,0.942 -2.385,0.673 -2.458,0.391C-2.653,-0.362 -2.228,-0.783 -1.799,-1.337" style="fill:white;fill-rule:nonzero;"/>
        </g>
        <g transform="matrix(1,0,0,1,377.385,89.6573)">
            <path d="M0,-1.315C-0.173,-1.399 -0.346,-1.484 -0.519,-1.568C-1.222,-1.911 -2.106,-1.502 -2.106,-0.657C-2.106,0.188 -1.222,0.596 -0.519,0.253C-0.346,0.169 -0.173,0.085 0,0C0.497,-0.242 0.497,-1.072 0,-1.315" style="fill:white;fill-rule:nonzero;"/>
        </g>
        <g transform="matrix(1,0,0,1,307,85.7418)">
            <path d="M0,-1.484C-0.957,-1.484 -0.957,0 0,0C0.957,0 0.957,-1.484 0,-1.484" style="fill:white;fill-rule:nonzero;"/>
        </g>
        <g transform="matrix(-0.998619,-0.052536,-0.052536,0.998619,263.862,76.1781)">
            <path d="M1.019,-2.967C1.658,-2.948 2.161,-2.362 2.128,-1.735C2.093,-1.066 1.593,-0.708 1.019,-0.664C0.617,-0.143 -0.246,-0.022 -0.576,-0.736C-1.149,-1.972 -0.274,-3.006 1.019,-2.967" style="fill:white;fill-rule:nonzero;"/>
        </g>
        <g transform="matrix(1,0,0,1,193,97.6639)">
            <path d="M0,-1.328C-0.856,-1.328 -0.856,0 0,0C0.856,0 0.856,-1.328 0,-1.328" style="fill:white;fill-rule:nonzero;"/>
        </g>
        <g transform="matrix(1,0,0,1,42.3333,370.487)">
            <path d="M0,-1.641C-1.058,-1.641 -1.058,0 0,0C1.058,0 1.058,-1.641 0,-1.641" style="fill:white;fill-rule:nonzero;"/>
        </g>
        <g transform="matrix(1,0,0,1,35.8563,408.597)">
            <path d="M0,-2.453C-0.178,-2.651 -0.468,-2.772 -0.763,-2.801C-1.193,-3.081 -1.827,-3.071 -2.243,-2.828C-2.869,-2.461 -3.204,-1.513 -2.754,-0.877C-2.178,-0.062 -1.333,0.628 -0.294,0.079C0.715,-0.455 0.686,-1.69 0,-2.453" style="fill:white;fill-rule:nonzero;"/>
        </g>
        <g transform="matrix(1,0,0,1,48.3333,415.792)">
            <path d="M0,-2.416C-0.785,-2.416 -1.113,-1.617 -0.826,-0.976C-0.748,-0.8 -0.669,-0.624 -0.59,-0.447C-0.39,0 0.39,0 0.59,-0.447C0.669,-0.624 0.748,-0.8 0.826,-0.976C1.113,-1.617 0.785,-2.416 0,-2.416" style="fill:white;fill-rule:nonzero;"/>
        </g>
        <g transform="matrix(1,0,0,1,49.6667,439.114)">
            <path d="M0,-1.562C-1.008,-1.562 -1.008,0 0,0C1.008,0 1.008,-1.562 0,-1.562" style="fill:white;fill-rule:nonzero;"/>
        </g>
        <g transform="matrix(-0.961814,0.273703,0.273703,0.961814,82.8221,456.243)">
            <path d="M-0.441,-2.772C-0.045,-2.668 0.356,-2.583 0.7,-2.353C1.959,-1.509 0.94,0.321 -0.441,-0.305C-0.818,-0.476 -1.101,-0.773 -1.397,-1.055C-2.136,-1.757 -1.426,-3.031 -0.441,-2.772" style="fill:white;fill-rule:nonzero;"/>
        </g>
        <g transform="matrix(1,0,0,1,118.694,452.754)">
            <path d="M0,-3.532C-0.285,-3.471 -0.573,-3.432 -0.83,-3.281C-1.16,-3.088 -1.357,-2.766 -1.558,-2.454C-2.305,-1.292 -0.822,0.19 0.34,-0.557C0.652,-0.757 0.973,-0.954 1.167,-1.284C1.318,-1.541 1.356,-1.83 1.417,-2.114C1.607,-2.997 0.883,-3.722 0,-3.532" style="fill:white;fill-rule:nonzero;"/>
        </g>
        <g transform="matrix(1,0,0,1,135,457.606)">
            <path d="M0,-1.211C-0.781,-1.211 -0.781,0 0,0C0.781,0 0.781,-1.211 0,-1.211" style="fill:white;fill-rule:nonzero;"/>
        </g>
        <g transform="matrix(1,0,0,1,166.333,439.014)">
            <path d="M0,-2.695C-1.738,-2.695 -1.738,0 0,0C1.738,0 1.738,-2.695 0,-2.695" style="fill:white;fill-rule:nonzero;"/>
        </g>
        <g transform="matrix(1,0,0,1,193.667,438.35)">
            <path d="M0,-1.367C-0.882,-1.367 -0.882,0 0,0C0.882,0 0.882,-1.367 0,-1.367" style="fill:white;fill-rule:nonzero;"/>
        </g>
        <g transform="matrix(1,0,0,1,192.815,413.61)">
            <path d="M0,-0.267C-0.096,-0.547 -0.271,-0.789 -0.556,-0.939C-0.598,-0.985 -0.64,-1.03 -0.682,-1.076C-2.086,-2.596 -4.467,-0.215 -2.947,1.189C-2.902,1.231 -2.856,1.273 -2.811,1.315C-2.66,1.6 -2.418,1.775 -2.138,1.871C-1.393,2.329 -0.746,2.059 -0.342,1.529C0.187,1.125 0.457,0.478 0,-0.267" style="fill:white;fill-rule:nonzero;"/>
        </g>
    </g>
</svg>
